<svg width="18" height="24" viewBox="0 0 18 24" fill="none" xmlns="http://www.w3.org/2000/svg">
<path d="M0.510742 9.17853L0.516439 9.09888L0.500295 9.0344C0.500233 9.03248 0.500174 9.03007 0.500127 9.02705L0.5 8.99887C0.5 4.30832 4.31282 0.5 9.01196 0.5C13.7116 0.5 17.5226 4.30826 17.4999 8.99646V8.99887L17.4998 9.02705C17.4997 9.03007 17.4997 9.03248 17.4996 9.0344L17.4835 9.09888L17.4892 9.17853C17.4979 9.30085 17.4896 9.44354 17.4689 9.58798L17.4662 9.60656L17.465 9.62528C17.3403 11.4808 16.6039 13.1792 15.4574 14.5167L15.4572 14.5169C14.0359 16.1768 12.641 17.8972 11.5234 19.8225L11.5224 19.8243L9.61337 23.1453C9.61315 23.1456 9.61293 23.146 9.61271 23.1464C9.33679 23.6179 8.6631 23.6179 8.38719 23.1464C8.38697 23.146 8.38674 23.1456 8.38652 23.1453L6.47765 19.8246C5.37112 17.8971 3.96253 16.175 2.54265 14.5169L2.54249 14.5167C1.39597 13.1792 0.659558 11.4808 0.534924 9.62528L0.533666 9.60656L0.531008 9.58798C0.510343 9.44354 0.501992 9.30085 0.510742 9.17853Z" fill="#FCC32E" stroke="#2D384A"/>
<path d="M9.00195 12.5C10.935 12.5 12.502 10.933 12.502 9C12.502 7.067 10.935 5.5 9.00195 5.5C7.06896 5.5 5.50195 7.067 5.50195 9C5.50195 10.933 7.06896 12.5 9.00195 12.5Z" fill="#2D384A"/>
</svg>
