<svg width="35" height="44" viewBox="0 0 35 44" fill="none" xmlns="http://www.w3.org/2000/svg">
<g filter="url(#filter0_d_124_1347)">
<path d="M17.5179 0C10.056 0 4 6.04724 4 13.4983C4 13.5703 4 13.6423 4.01802 13.7143C4 13.9663 4.01802 14.2362 4.05407 14.4882C4.25233 17.4398 5.42389 20.1395 7.24431 22.2632C9.37113 24.7469 11.4439 27.2846 13.066 30.1102L15.9318 35.0956C16.6348 36.3015 18.3651 36.3015 19.068 35.0956L21.9338 30.1102C23.574 27.2846 25.6287 24.7469 27.7555 22.2632C29.576 20.1395 30.7475 17.4398 30.9458 14.4882C30.9818 14.2362 30.9998 13.9663 30.9818 13.7143C30.9998 13.6423 30.9998 13.5703 30.9998 13.4983C31.0359 6.04724 24.9798 0 17.5179 0Z" fill="#FCC32E"/>
<path d="M5.01548 13.7856L5.02687 13.6263L5.00002 13.5191L5 13.4983C5 6.6009 10.607 1 17.5179 1C24.4299 1 30.0332 6.60077 29.9998 13.4935V13.4983L29.9998 13.5191L29.973 13.6263L29.9844 13.7856C29.9959 13.9463 29.9852 14.1417 29.9558 14.3466L29.9505 14.3837L29.948 14.4212C29.7648 17.1483 28.6825 19.6452 26.9963 21.6124L26.996 21.6128C24.8622 24.1046 22.7573 26.6996 21.0689 29.6082L21.0668 29.6119L18.2041 34.592C18.2037 34.5927 18.2033 34.5934 18.2029 34.594C17.8854 35.1353 17.1144 35.1353 16.797 34.594C16.7966 34.5934 16.7962 34.5927 16.7958 34.592L13.9333 29.6124C12.261 26.6993 10.1347 24.1011 8.00387 21.6128L8.00355 21.6124C6.31732 19.6452 5.235 17.1483 5.05182 14.4212L5.04931 14.3837L5.04399 14.3466C5.01468 14.1417 5.00398 13.9463 5.01548 13.7856Z" stroke="#2D384A" stroke-width="2"/>
</g>
<path d="M17.5 18.75C20.3995 18.75 22.75 16.3995 22.75 13.5C22.75 10.6005 20.3995 8.25 17.5 8.25C14.6005 8.25 12.25 10.6005 12.25 13.5C12.25 16.3995 14.6005 18.75 17.5 18.75Z" fill="#2D384A"/>
<defs>
<filter id="filter0_d_124_1347" x="0" y="0" width="35" height="44" filterUnits="userSpaceOnUse" color-interpolation-filters="sRGB">
<feFlood flood-opacity="0" result="BackgroundImageFix"/>
<feColorMatrix in="SourceAlpha" type="matrix" values="0 0 0 0 0 0 0 0 0 0 0 0 0 0 0 0 0 0 127 0" result="hardAlpha"/>
<feOffset dy="4"/>
<feGaussianBlur stdDeviation="2"/>
<feComposite in2="hardAlpha" operator="out"/>
<feColorMatrix type="matrix" values="0 0 0 0 0 0 0 0 0 0 0 0 0 0 0 0 0 0 0.25 0"/>
<feBlend mode="normal" in2="BackgroundImageFix" result="effect1_dropShadow_124_1347"/>
<feBlend mode="normal" in="SourceGraphic" in2="effect1_dropShadow_124_1347" result="shape"/>
</filter>
</defs>
</svg>
