<svg width="40" height="40" viewBox="0 0 40 40" fill="none" xmlns="http://www.w3.org/2000/svg">
<rect width="40" height="40" rx="20" fill="#FCC32E"/>
<path d="M13.1857 21.7039C12.0802 21.8959 10.8796 21.5719 10.0238 20.7079C9.56018 20.2399 8.81129 20.2399 8.3477 20.7079C7.8841 21.1759 7.8841 21.9319 8.3477 22.3999C9.51263 23.5639 11.0342 24.1519 12.5557 24.1519C13.2333 24.1519 13.9227 24.0319 14.5646 23.7799L14.3269 23.5399C13.792 22.9999 13.4235 22.3759 13.1857 21.7039Z" fill="#2D384A"/>
<path d="M25.5374 18.1161C23.7187 17.3721 22.316 15.8361 21.7692 13.9041C21.7692 13.8921 21.7573 13.8801 21.7573 13.8681C21.6979 13.7361 21.6147 13.6161 21.5077 13.5081C20.8777 12.8721 20.1407 12.4041 19.3443 12.1281C17.2403 11.3481 14.7915 11.8041 13.1036 13.5081C12.64 13.9761 12.64 14.7321 13.1036 15.2001C13.5672 15.6681 14.316 15.6681 14.7796 15.2001C15.374 14.6001 16.1229 14.2521 16.9074 14.1681C17.8108 14.0721 18.7618 14.3121 19.5107 14.9241L16.004 18.4521C15.4572 19.0161 15.2313 19.7841 15.3502 20.5041C15.3502 20.6121 15.374 20.7081 15.4096 20.8041C15.5047 21.1881 15.7068 21.5481 16.004 21.8481L16.4676 22.3161L16.6459 22.4961L17.692 23.5521C18.1556 24.0201 18.7618 24.2481 19.368 24.2481C19.475 24.2481 19.582 24.2361 19.689 24.2121C19.9624 24.7281 20.1169 25.3161 20.1169 25.9281V30.8001C20.1169 31.4601 20.6518 32.0001 21.3056 32.0001C21.9594 32.0001 22.4943 31.4601 22.4943 30.8001V25.9281C22.4943 25.7841 22.4943 25.6401 22.4706 25.4961C22.4111 24.5601 22.1377 23.6841 21.686 22.9161L23.5523 21.0321L23.5761 21.0081C24.3606 23.4081 26.5716 25.1481 29.1987 25.1481C29.8524 25.1481 30.3874 24.6081 30.3874 23.9481C30.3874 23.2881 29.8524 22.7481 29.1987 22.7481C27.2373 22.7481 25.6325 21.1281 25.6325 19.1481L25.5374 18.1161Z" fill="#2D384A"/>
<path d="M27.9501 8C25.7035 8 23.8848 9.836 23.8848 12.092C23.8848 13.232 24.3365 14.252 25.0735 14.996C25.8105 15.74 26.8209 16.196 27.9501 16.196C30.1849 16.196 32.0036 14.36 32.0036 12.092C32.0036 9.824 30.1849 8 27.9501 8Z" fill="#2D384A"/>
</svg>
