<svg width="44" height="56" viewBox="0 0 44 56" fill="none" xmlns="http://www.w3.org/2000/svg">
<g filter="url(#filter0_d_124_1350)">
<path d="M22.0239 0C12.0747 0 4 8.06299 4 17.9977C4 18.0937 4 18.1897 4.02403 18.2857C4 18.6217 4.02403 18.9816 4.0721 19.3176C4.33645 23.2531 5.89852 26.8526 8.32574 29.6843C11.1615 32.9959 13.9252 36.3794 16.088 40.147L19.9091 46.7941C20.8464 48.4019 23.1534 48.4019 24.0907 46.7941L27.9117 40.147C30.0986 36.3794 32.8383 32.9959 35.674 29.6843C38.1013 26.8526 39.6633 23.2531 39.9277 19.3176C39.9758 18.9816 39.9998 18.6217 39.9758 18.2857C39.9998 18.1897 39.9998 18.0937 39.9998 17.9977C40.0479 8.06299 31.9731 0 22.0239 0Z" fill="#FCC32E"/>
<path d="M5.02148 18.3571L5.03288 18.1978L5.00059 18.0688C5.00047 18.065 5.00035 18.0601 5.00025 18.0541C5.00002 18.0392 5 18.0231 5 17.9977C5 8.61665 12.6256 1 22.0239 1C31.4232 1 39.0452 8.61652 38.9998 17.9929V17.9977C38.9998 18.0231 38.9998 18.0392 38.9995 18.0541C38.9994 18.0601 38.9993 18.065 38.9992 18.0688L38.9669 18.1978L38.9783 18.3571C38.9958 18.6017 38.9791 18.8871 38.9378 19.176L38.9325 19.2131L38.9299 19.2506C38.6807 22.9615 37.2078 26.3584 34.9148 29.0335L34.9145 29.0339C32.0718 32.3536 29.282 35.7944 27.0469 39.645L27.0448 39.6486L23.2267 46.2905C23.2263 46.2913 23.2259 46.292 23.2254 46.2928C22.6736 47.2357 21.3262 47.2357 20.7744 46.2928C20.7739 46.292 20.7735 46.2913 20.773 46.2905L16.9553 39.6491C14.7422 35.7942 11.9251 32.3501 9.08531 29.0339L9.08499 29.0335C6.79195 26.3584 5.31912 22.9615 5.06985 19.2506L5.06733 19.2131L5.06202 19.176C5.02069 18.8871 5.00398 18.6017 5.02148 18.3571Z" stroke="#2D384A" stroke-width="2"/>
</g>
<g clip-path="url(#clip0_124_1350)">
<path d="M13.8068 20.7039C12.7013 20.8959 11.5007 20.5719 10.6449 19.7079C10.1813 19.2399 9.43239 19.2399 8.96879 19.7079C8.50519 20.1759 8.50519 20.9319 8.96879 21.3999C10.1337 22.5639 11.6553 23.1519 13.1768 23.1519C13.8544 23.1519 14.5438 23.0319 15.1857 22.7799L14.948 22.5399C14.4131 21.9999 14.0446 21.3759 13.8068 20.7039Z" fill="#2D384A"/>
<path d="M26.1585 17.1161C24.3398 16.3721 22.9371 14.8361 22.3903 12.9041C22.3903 12.8921 22.3784 12.8801 22.3784 12.8681C22.319 12.7361 22.2358 12.6161 22.1288 12.5081C21.4988 11.8721 20.7618 11.4041 19.9654 11.1281C17.8614 10.3481 15.4126 10.8041 13.7246 12.5081C13.2611 12.9761 13.2611 13.7321 13.7246 14.2001C14.1882 14.6681 14.9371 14.6681 15.4007 14.2001C15.9951 13.6001 16.744 13.2521 17.5285 13.1681C18.4319 13.0721 19.3829 13.3121 20.1318 13.9241L16.6251 17.4521C16.0783 18.0161 15.8524 18.7841 15.9713 19.5041C15.9713 19.6121 15.9951 19.7081 16.0307 19.8041C16.1258 20.1881 16.3279 20.5481 16.6251 20.8481L17.0887 21.3161L17.267 21.4961L18.3131 22.5521C18.7767 23.0201 19.3829 23.2481 19.9891 23.2481C20.0961 23.2481 20.2031 23.2361 20.3101 23.2121C20.5835 23.7281 20.738 24.3161 20.738 24.9281V29.8001C20.738 30.4601 21.2729 31.0001 21.9267 31.0001C22.5805 31.0001 23.1154 30.4601 23.1154 29.8001V24.9281C23.1154 24.7841 23.1154 24.6401 23.0917 24.4961C23.0322 23.5601 22.7588 22.6841 22.3071 21.9161L24.1734 20.0321L24.1972 20.0081C24.9817 22.4081 27.1927 24.1481 29.8197 24.1481C30.4735 24.1481 31.0085 23.6081 31.0085 22.9481C31.0085 22.2881 30.4735 21.7481 29.8197 21.7481C27.8584 21.7481 26.2536 20.1281 26.2536 18.1481L26.1585 17.1161Z" fill="#2D384A"/>
<path d="M28.5712 7C26.3246 7 24.5059 8.836 24.5059 11.092C24.5059 12.232 24.9576 13.252 25.6946 13.996C26.4316 14.74 27.442 15.196 28.5712 15.196C30.806 15.196 32.6247 13.36 32.6247 11.092C32.6247 8.824 30.806 7 28.5712 7Z" fill="#2D384A"/>
</g>
<defs>
<filter id="filter0_d_124_1350" x="0" y="0" width="44" height="56" filterUnits="userSpaceOnUse" color-interpolation-filters="sRGB">
<feFlood flood-opacity="0" result="BackgroundImageFix"/>
<feColorMatrix in="SourceAlpha" type="matrix" values="0 0 0 0 0 0 0 0 0 0 0 0 0 0 0 0 0 0 127 0" result="hardAlpha"/>
<feOffset dy="4"/>
<feGaussianBlur stdDeviation="2"/>
<feComposite in2="hardAlpha" operator="out"/>
<feColorMatrix type="matrix" values="0 0 0 0 0 0 0 0 0 0 0 0 0 0 0 0 0 0 0.25 0"/>
<feBlend mode="normal" in2="BackgroundImageFix" result="effect1_dropShadow_124_1350"/>
<feBlend mode="normal" in="SourceGraphic" in2="effect1_dropShadow_124_1350" result="shape"/>
</filter>
<clipPath id="clip0_124_1350">
<rect width="24" height="24" fill="white" transform="translate(8.625 7)"/>
</clipPath>
</defs>
</svg>
