<svg width="44" height="48" viewBox="0 0 44 48" fill="none" xmlns="http://www.w3.org/2000/svg">
<g filter="url(#filter0_d_124_1335)">
<rect x="4" y="4" width="36" height="36" rx="18" fill="#448DFF"/>
<rect x="5" y="5" width="34" height="34" rx="17" stroke="#2D384A" stroke-width="2"/>
</g>
<rect x="21" y="38" width="2" height="10" rx="1" fill="#2D384A"/>
<path d="M21.0003 23.9699C21.0003 25.7099 19.4903 27.1099 17.7103 26.9099C16.3703 26.7599 15.2903 25.6999 15.1203 24.3699C15.1203 24.3199 15.1103 24.2699 15.1003 24.2199C15.0703 23.8699 15.3003 23.5499 15.6403 23.4799L20.5803 22.4399C20.6003 22.4899 20.6303 22.5399 20.6503 22.5899C20.8703 23.0099 21.0003 23.4799 21.0003 23.9799V23.9699Z" fill="#2D384A"/>
<path d="M19.73 20.5399L14.77 21.5799C14.49 21.6399 14.21 21.5199 14.06 21.2799C13.82 20.9099 13.54 20.5599 13.23 20.2399C12.47 19.4399 12 18.3499 12 17.1499C12 13.5299 13.86 11.8199 16.5 12.0099C18.68 12.1699 20.78 14.5599 20.98 16.7299C21.06 17.5999 20.89 18.4299 20.54 19.1399C20.4 19.4099 20.31 19.6999 20.25 19.9899C20.2 20.2599 20 20.4699 19.73 20.5299V20.5399Z" fill="#2D384A"/>
<path d="M23 29.0398C23 30.7798 24.51 32.1798 26.29 31.9798C27.63 31.8298 28.71 30.7698 28.88 29.4398C28.88 29.3898 28.89 29.3398 28.9 29.2898C28.93 28.9398 28.7 28.6198 28.36 28.5498L23.42 27.5098C23.4 27.5598 23.37 27.6098 23.35 27.6598C23.13 28.0798 23 28.5498 23 29.0498V29.0398Z" fill="#2D384A"/>
<path d="M24.2695 25.6102L29.2295 26.6502C29.5095 26.7102 29.7895 26.5902 29.9395 26.3502C30.1795 25.9802 30.4595 25.6302 30.7695 25.3102C31.5295 24.5102 31.9995 23.4202 31.9995 22.2202C31.9995 18.6002 30.1395 16.8902 27.4995 17.0802C25.3195 17.2402 23.2195 19.6302 23.0195 21.8002C22.9395 22.6702 23.1095 23.5002 23.4595 24.2102C23.5995 24.4802 23.6895 24.7702 23.7495 25.0602C23.7995 25.3302 23.9995 25.5402 24.2695 25.6002V25.6102Z" fill="#2D384A"/>
<defs>
<filter id="filter0_d_124_1335" x="0" y="0" width="44" height="44" filterUnits="userSpaceOnUse" color-interpolation-filters="sRGB">
<feFlood flood-opacity="0" result="BackgroundImageFix"/>
<feColorMatrix in="SourceAlpha" type="matrix" values="0 0 0 0 0 0 0 0 0 0 0 0 0 0 0 0 0 0 127 0" result="hardAlpha"/>
<feOffset/>
<feGaussianBlur stdDeviation="2"/>
<feComposite in2="hardAlpha" operator="out"/>
<feColorMatrix type="matrix" values="0 0 0 0 0 0 0 0 0 0 0 0 0 0 0 0 0 0 0.5 0"/>
<feBlend mode="normal" in2="BackgroundImageFix" result="effect1_dropShadow_124_1335"/>
<feBlend mode="normal" in="SourceGraphic" in2="effect1_dropShadow_124_1335" result="shape"/>
</filter>
</defs>
</svg>
