<svg width="44" height="48" viewBox="0 0 44 48" fill="none" xmlns="http://www.w3.org/2000/svg">
<g filter="url(#filter0_d_124_1343)">
<rect x="4" y="4" width="36" height="36" rx="18" fill="#F92565"/>
<rect x="5" y="5" width="34" height="34" rx="17" stroke="#2D384A" stroke-width="2"/>
</g>
<path d="M29.7005 22.97C30.5705 22.06 31.0005 20.86 31.0005 19.67C31.0005 18.48 30.5605 17.28 29.7005 16.37C27.9505 14.55 25.1205 14.55 23.3805 16.37L22.0005 17.81L20.6205 16.37C19.7505 15.45 18.6105 15 17.4705 15C16.3305 15 15.1805 15.45 14.3105 16.36C12.5605 18.19 12.5605 21.14 14.3105 22.97L22.0005 31L29.6905 22.97H29.7005Z" fill="#2D384A"/>
<rect x="21" y="38" width="2" height="10" rx="1" fill="#2D384A"/>
<defs>
<filter id="filter0_d_124_1343" x="0" y="0" width="44" height="44" filterUnits="userSpaceOnUse" color-interpolation-filters="sRGB">
<feFlood flood-opacity="0" result="BackgroundImageFix"/>
<feColorMatrix in="SourceAlpha" type="matrix" values="0 0 0 0 0 0 0 0 0 0 0 0 0 0 0 0 0 0 127 0" result="hardAlpha"/>
<feOffset/>
<feGaussianBlur stdDeviation="2"/>
<feComposite in2="hardAlpha" operator="out"/>
<feColorMatrix type="matrix" values="0 0 0 0 0 0 0 0 0 0 0 0 0 0 0 0 0 0 0.5 0"/>
<feBlend mode="normal" in2="BackgroundImageFix" result="effect1_dropShadow_124_1343"/>
<feBlend mode="normal" in="SourceGraphic" in2="effect1_dropShadow_124_1343" result="shape"/>
</filter>
</defs>
</svg>
