<svg width="220" height="173" viewBox="0 0 220 173" fill="none" xmlns="http://www.w3.org/2000/svg">
<g filter="url(#filter0_d_310_2)">
<mask id="path-1-inside-1_310_2" fill="white">
<path fill-rule="evenodd" clip-rule="evenodd" d="M24 3C12.9543 3 4 11.9543 4 23C4 34.0457 12.9543 43 24 43H96.9602L108.145 54.1203C109.32 55.2885 111.225 55.2885 112.4 54.1203L123.585 43H196C207.046 43 216 34.0457 216 23C216 11.9543 207.046 3 196 3H24Z"/>
</mask>
<path fill-rule="evenodd" clip-rule="evenodd" d="M24 3C12.9543 3 4 11.9543 4 23C4 34.0457 12.9543 43 24 43H96.9602L108.145 54.1203C109.32 55.2885 111.225 55.2885 112.4 54.1203L123.585 43H196C207.046 43 216 34.0457 216 23C216 11.9543 207.046 3 196 3H24Z" fill="white"/>
<path d="M96.9602 43L97.6653 42.2908L97.3727 42H96.9602V43ZM108.145 54.1203L107.44 54.8294L108.145 54.1203ZM112.4 54.1203L113.105 54.8295L112.4 54.1203ZM123.585 43V42H123.173L122.88 42.2908L123.585 43ZM5 23C5 12.5066 13.5066 4 24 4V2C12.402 2 3 11.402 3 23H5ZM24 42C13.5066 42 5 33.4934 5 23H3C3 34.598 12.402 44 24 44V42ZM96.9602 42H24V44H96.9602V42ZM108.85 53.4111L97.6653 42.2908L96.2552 43.7092L107.44 54.8294L108.85 53.4111ZM111.695 53.4111C110.91 54.1915 109.635 54.1915 108.85 53.4111L107.44 54.8294C109.005 56.3854 111.54 56.3854 113.105 54.8295L111.695 53.4111ZM122.88 42.2908L111.695 53.4111L113.105 54.8295L124.29 43.7092L122.88 42.2908ZM196 42H123.585V44H196V42ZM215 23C215 33.4934 206.493 42 196 42V44C207.598 44 217 34.598 217 23H215ZM196 4C206.493 4 215 12.5066 215 23H217C217 11.402 207.598 2 196 2V4ZM24 4H196V2H24V4Z" fill="#EFEFF1" mask="url(#path-1-inside-1_310_2)"/>
</g>
<path d="M53.4131 18.2539V19.2383C53.4131 20.168 53.4131 21.248 53.1533 22.5742H54.7666V23.9688H49.9131V25.5C52.1211 25.6709 53.4404 26.5117 53.4541 27.8516C53.4404 29.3965 51.7725 30.2578 49.0518 30.2578C46.3037 30.2578 44.6357 29.3965 44.6357 27.8516C44.6357 26.5117 45.9551 25.6777 48.1768 25.5V23.9688H43.3779V22.5742H51.4033C51.6357 21.3848 51.6699 20.4756 51.6768 19.6348H44.7725V18.2539H53.4131ZM49.0518 26.8535C47.3018 26.8535 46.3857 27.1816 46.3857 27.8516C46.3857 28.5488 47.3018 28.877 49.0518 28.877C50.7744 28.877 51.6904 28.5488 51.6904 27.8516C51.6904 27.1816 50.7744 26.8535 49.0518 26.8535ZM65.5127 18.377V19.375C65.5127 20.3457 65.5127 21.4258 65.2256 22.8477H66.8662V24.2559H55.4775V22.8477H63.4619C63.7354 21.6035 63.7695 20.6396 63.7764 19.7715H56.8721V18.377H65.5127ZM65.4717 25.5684V30.1211H56.8311V25.5684H65.4717ZM58.54 26.9355V28.7266H63.7354V26.9355H58.54ZM77.3936 17.8164V22.6836H79.2256V24.1191H77.3936V30.2578H75.6709V17.8164H77.3936ZM74.8232 19.6758V21.0703H67.5088V19.6758H70.3252V18.0078H72.0752V19.6758H74.8232ZM71.2002 21.7676C73.0186 21.7676 74.3721 22.998 74.3721 24.7344C74.3721 26.4707 73.0186 27.7012 71.2002 27.7012C69.3682 27.7012 68.0146 26.4707 68.0146 24.7344C68.0146 22.998 69.3682 21.7676 71.2002 21.7676ZM71.2002 23.1758C70.3252 23.1895 69.6826 23.7773 69.6826 24.7344C69.6826 25.7051 70.3252 26.2793 71.2002 26.2656C72.0752 26.2793 72.7041 25.7051 72.7041 24.7344C72.7041 23.7773 72.0752 23.1895 71.2002 23.1758ZM90.0947 17.8301V26.9082H88.3447V17.8301H90.0947ZM90.4229 28.6445V30.0391H81.7549V26.0332H83.5186V28.6445H90.4229ZM84.4482 19.7168C84.4346 21.3574 85.3096 22.9707 87.3604 23.627L86.4717 24.9941C85.0703 24.5293 84.0996 23.5996 83.5459 22.4102C82.9922 23.6885 81.9941 24.7139 80.5381 25.2129L79.6357 23.832C81.7275 23.1348 82.6299 21.3984 82.6299 19.7168V18.5137H84.4482V19.7168ZM105.79 17.8164V30.2578H104.149V17.8164H105.79ZM103.138 18.0898V29.7109H101.511V23.9961H99.4736C98.7627 25.418 97.6074 26.6484 95.8369 27.6738L94.8525 26.4434C97.3613 24.9531 98.4688 23.1416 98.708 20.7012H95.5361V19.293H100.444C100.438 20.4756 100.314 21.5898 100.021 22.6152H101.511V18.0898H103.138ZM114.854 25.8008C114.854 26.8057 115.271 27.8379 116.29 28.5215C117.315 27.7969 117.767 26.7236 117.767 25.8008V25.377H119.489V25.8008C119.476 27.0996 120.173 28.3027 121.827 28.8086L120.979 30.0801C119.79 29.6768 119.011 28.918 118.587 27.9609C118.17 28.918 117.445 29.752 116.331 30.1895C115.155 29.7656 114.424 28.959 114.021 28.002C113.583 28.9316 112.817 29.6836 111.683 30.0801L110.821 28.8086C112.462 28.248 113.146 27.0176 113.159 25.8008V25.377H114.854V25.8008ZM120.747 17.8301V24.8574H118.997V17.8301H120.747ZM113.925 18.459C115.866 18.459 117.329 19.6895 117.329 21.4531C117.329 23.1895 115.866 24.4199 113.925 24.4199C111.983 24.4199 110.521 23.1895 110.521 21.4531C110.521 19.6895 111.983 18.459 113.925 18.459ZM113.925 19.9219C112.927 19.9219 112.216 20.4961 112.229 21.4531C112.216 22.3965 112.927 22.9707 113.925 22.9707C114.896 22.9707 115.606 22.3965 115.606 21.4531C115.606 20.4961 114.896 19.9219 113.925 19.9219ZM128.103 18.4453C130.728 18.459 132.778 19.8672 132.792 22.0273C132.778 24.2012 130.728 25.623 128.103 25.6094C125.464 25.623 123.427 24.2012 123.427 22.0273C123.427 19.8672 125.464 18.459 128.103 18.4453ZM128.103 19.8672C126.38 19.8535 125.122 20.6875 125.122 22.0273C125.122 23.3809 126.38 24.1875 128.103 24.1875C129.825 24.1875 131.056 23.3809 131.069 22.0273C131.056 20.6875 129.825 19.8535 128.103 19.8672ZM133.817 27.332V28.7402H122.429V27.332H133.817ZM144.946 17.8301V26.9082H143.196V17.8301H144.946ZM145.274 28.6445V30.0391H136.606V26.0332H138.37V28.6445H145.274ZM139.3 19.7168C139.286 21.3574 140.161 22.9707 142.212 23.627L141.323 24.9941C139.922 24.5293 138.951 23.5996 138.397 22.4102C137.844 23.6885 136.846 24.7139 135.39 25.2129L134.487 23.832C136.579 23.1348 137.481 21.3984 137.481 19.7168V18.5137H139.3V19.7168ZM156.444 17.8164V22.5879H158.208V24.0234H156.444V30.2305H154.694V17.8164H156.444ZM153.122 19.0879C153.108 22.8066 151.659 26.0332 147.476 28.084L146.491 26.7441C149.438 25.2676 151.017 23.2852 151.345 20.5098H147.202V19.0879H153.122ZM170.116 27.373V28.8086H158.728V27.373H161.271V24.3242C160.307 23.75 159.726 22.8682 159.726 21.7676C159.726 19.7578 161.694 18.418 164.401 18.418C167.095 18.418 169.077 19.7578 169.091 21.7676C169.084 22.8408 168.517 23.7158 167.587 24.2969V27.373H170.116ZM164.401 19.7988C162.624 19.7988 161.448 20.5098 161.448 21.7676C161.448 22.9844 162.624 23.7363 164.401 23.7363C166.165 23.7363 167.354 22.9844 167.368 21.7676C167.354 20.5098 166.165 19.7988 164.401 19.7988ZM162.993 27.373H165.823V24.9531C165.379 25.042 164.9 25.0898 164.401 25.0898C163.902 25.0898 163.431 25.0488 162.993 24.9531V27.373ZM173.001 25.8828C173.015 24.1875 173.466 23.6543 174.286 23.1484C174.874 22.7656 175.325 22.3418 175.325 21.7129C175.325 21.0293 174.792 20.5781 174.136 20.5781C173.493 20.5781 172.905 21.002 172.878 21.8086H170.937C170.978 19.8809 172.399 18.9648 174.149 18.9648C176.05 18.9648 177.403 19.9629 177.403 21.6445C177.403 22.7656 176.829 23.4902 175.927 24.0234C175.161 24.4883 174.819 24.9258 174.806 25.8828V26.0332H173.001V25.8828ZM173.944 29.123C173.302 29.123 172.782 28.6035 172.796 27.9746C172.782 27.3457 173.302 26.8398 173.944 26.8398C174.546 26.8398 175.079 27.3457 175.079 27.9746C175.079 28.6035 174.546 29.123 173.944 29.123Z" fill="#2D384A"/>
<ellipse cx="110" cy="162.286" rx="50" ry="10.7143" fill="#E0E1E4"/>
<rect x="76" y="74" width="71.4286" height="71.4286" rx="35.7143" fill="#2D384A"/>
<path d="M150 100.905C150 100.168 150.597 99.5715 151.333 99.5715C155.015 99.5715 158 102.556 158 106.238V111.905C158 115.587 155.015 118.572 151.333 118.572C150.597 118.572 150 117.975 150 117.238V100.905Z" fill="#E0E1E4"/>
<path d="M135.5 124.572C137.433 124.572 139 126.139 139 128.072L-nan -nanL139 128.072C139 130.005 137.433 131.572 135.5 131.572L130.5 131.572C128.567 131.572 127 130.005 127 128.072L-nan -nanL127 128.072C127 126.139 128.567 124.572 130.5 124.572L135.5 124.572Z" fill="#E0E1E4"/>
<path d="M73 117.238C73 117.975 72.403 118.572 71.6667 118.572C67.9848 118.572 65 115.587 65 111.905L65 106.238C65 102.556 67.9848 99.5715 71.6667 99.5715C72.403 99.5715 73 100.168 73 100.905L73 117.238Z" fill="#E0E1E4"/>
<path fill-rule="evenodd" clip-rule="evenodd" d="M155 115.072V117.572C155 123.923 149.851 129.072 143.5 129.072H137V126.072H143.5C148.194 126.072 152 122.266 152 117.572V115.072H155Z" fill="#E0E1E4"/>
<path d="M106.72 151.05L105.648 152.907L101.034 160.9L78.1484 147.686L79.2199 145.836C81.177 142.443 85.5127 141.278 88.8984 143.236L88.9484 143.264L87.3699 146C87.0699 146.514 87.2484 147.171 87.7627 147.464C88.2699 147.764 88.927 147.586 89.227 147.071L90.8056 144.336L92.6627 145.407L91.077 148.143C90.7842 148.657 90.9627 149.314 91.4699 149.607C91.9842 149.907 92.6413 149.728 92.9342 149.214L94.5127 146.478L96.3699 147.55C96.7056 147.743 97.077 147.836 97.4413 147.836C98.1842 147.836 98.8984 147.457 99.2984 146.764C99.8913 145.743 101.198 145.393 102.227 145.986L105.934 148.128C106.963 148.714 107.313 150.028 106.72 151.05Z" fill="#2D384A"/>
<path d="M97.6505 163.902L77.2371 152.117C76.5566 151.724 76.3213 150.846 76.7142 150.165L77.0713 149.547L99.9591 162.761L99.602 163.38C99.2091 164.06 98.331 164.295 97.6505 163.902Z" fill="#2D384A"/>
<path d="M116.28 151.05L117.352 152.907L121.966 160.9L144.852 147.686L143.78 145.836C141.823 142.443 137.487 141.278 134.102 143.236L134.052 143.264L135.63 146C135.93 146.514 135.752 147.171 135.237 147.464C134.73 147.764 134.073 147.586 133.773 147.071L132.194 144.336L130.337 145.407L131.923 148.143C132.216 148.657 132.037 149.314 131.53 149.607C131.016 149.907 130.359 149.728 130.066 149.214L128.487 146.478L126.63 147.55C126.294 147.743 125.923 147.836 125.559 147.836C124.816 147.836 124.102 147.457 123.702 146.764C123.109 145.743 121.802 145.393 120.773 145.986L117.066 148.128C116.037 148.714 115.687 150.028 116.28 151.05Z" fill="#2D384A"/>
<path d="M125.349 163.902L145.763 152.117C146.443 151.724 146.679 150.846 146.286 150.165L145.929 149.547L123.041 162.761L123.398 163.38C123.791 164.06 124.669 164.295 125.349 163.902Z" fill="#2D384A"/>
<path d="M104.143 119.286C108.088 119.286 111.286 114.968 111.286 109.643C111.286 104.317 108.088 100 104.143 100C100.198 100 97 104.317 97 109.643C97 114.968 100.198 119.286 104.143 119.286Z" fill="white" stroke="#2D384A" stroke-width="3" stroke-miterlimit="10"/>
<path d="M119.143 119.429C123.088 119.429 126.286 115.111 126.286 109.786C126.286 104.46 123.088 100.143 119.143 100.143C115.198 100.143 112 104.46 112 109.786C112 115.111 115.198 119.429 119.143 119.429Z" fill="white" stroke="#2D384A" stroke-width="3" stroke-miterlimit="10"/>
<path fill-rule="evenodd" clip-rule="evenodd" d="M104 108.646L109 113.118C109.617 113.67 110.566 113.617 111.118 113C111.67 112.383 111.617 111.434 111 110.882L105.708 106.149C104.746 105.277 103.25 105.292 102.297 106.144C102.297 106.144 102.296 106.145 102.296 106.145L97.0008 110.874C96.383 111.426 96.3294 112.374 96.8812 112.992C97.4331 113.61 98.3813 113.663 98.9992 113.112L104 108.646ZM103.693 108.371L103.697 108.375C103.696 108.373 103.694 108.372 103.693 108.371Z" fill="#2D384A"/>
<path fill-rule="evenodd" clip-rule="evenodd" d="M119 108.646L124 113.118C124.617 113.67 125.566 113.617 126.118 113C126.67 112.383 126.617 111.434 126 110.882L120.708 106.149C119.746 105.277 118.25 105.292 117.297 106.144C117.297 106.144 117.296 106.145 117.296 106.145L112.001 110.874C111.383 111.426 111.329 112.374 111.881 112.992C112.433 113.61 113.381 113.663 113.999 113.112L119 108.646ZM118.693 108.371L118.697 108.375C118.696 108.373 118.694 108.372 118.693 108.371Z" fill="#2D384A"/>
<defs>
<filter id="filter0_d_310_2" x="0" y="0" width="220" height="59.9965" filterUnits="userSpaceOnUse" color-interpolation-filters="sRGB">
<feFlood flood-opacity="0" result="BackgroundImageFix"/>
<feColorMatrix in="SourceAlpha" type="matrix" values="0 0 0 0 0 0 0 0 0 0 0 0 0 0 0 0 0 0 127 0" result="hardAlpha"/>
<feOffset dy="1"/>
<feGaussianBlur stdDeviation="2"/>
<feComposite in2="hardAlpha" operator="out"/>
<feColorMatrix type="matrix" values="0 0 0 0 0 0 0 0 0 0 0 0 0 0 0 0 0 0 0.1 0"/>
<feBlend mode="normal" in2="BackgroundImageFix" result="effect1_dropShadow_310_2"/>
<feBlend mode="normal" in="SourceGraphic" in2="effect1_dropShadow_310_2" result="shape"/>
</filter>
</defs>
</svg>
