<svg width="44" height="44" viewBox="0 0 44 44" fill="none" xmlns="http://www.w3.org/2000/svg">
<g filter="url(#filter0_d_154_3)">
<rect x="4" y="4" width="36" height="36" rx="18" fill="white"/>
</g>
<path d="M22 12C16.48 12 12 16.48 12 22C12 27.52 16.48 32 22 32C27.52 32 32 27.52 32 22C32 16.48 27.52 12 22 12ZM23 29.93V28C23 27.45 22.55 27 22 27C21.45 27 21 27.45 21 28V29.93C17.39 29.48 14.52 26.61 14.07 23H16C16.55 23 17 22.55 17 22C17 21.45 16.55 21 16 21H14.07C14.52 17.39 17.39 14.52 21 14.07V16C21 16.55 21.45 17 22 17C22.55 17 23 16.55 23 16V14.07C26.61 14.52 29.48 17.39 29.93 21H28C27.45 21 27 21.45 27 22C27 22.55 27.45 23 28 23H29.93C29.48 26.61 26.61 29.48 23 29.93Z" fill="#2D384A"/>
<path d="M22 24C23.1046 24 24 23.1046 24 22C24 20.8954 23.1046 20 22 20C20.8954 20 20 20.8954 20 22C20 23.1046 20.8954 24 22 24Z" fill="#2D384A"/>
<defs>
<filter id="filter0_d_154_3" x="0" y="0" width="44" height="44" filterUnits="userSpaceOnUse" color-interpolation-filters="sRGB">
<feFlood flood-opacity="0" result="BackgroundImageFix"/>
<feColorMatrix in="SourceAlpha" type="matrix" values="0 0 0 0 0 0 0 0 0 0 0 0 0 0 0 0 0 0 127 0" result="hardAlpha"/>
<feOffset/>
<feGaussianBlur stdDeviation="2"/>
<feComposite in2="hardAlpha" operator="out"/>
<feColorMatrix type="matrix" values="0 0 0 0 0 0 0 0 0 0 0 0 0 0 0 0 0 0 0.5 0"/>
<feBlend mode="normal" in2="BackgroundImageFix" result="effect1_dropShadow_154_3"/>
<feBlend mode="normal" in="SourceGraphic" in2="effect1_dropShadow_154_3" result="shape"/>
</filter>
</defs>
</svg>
