<svg width="20" height="20" viewBox="0 0 20 20" fill="none" xmlns="http://www.w3.org/2000/svg">
<rect x="0.5" y="0.5" width="19" height="19" rx="9.5" fill="white" fill-opacity="0.5" stroke="white"/>
<path d="M9.50022 10.9873C9.50022 11.8573 8.7452 12.5574 7.85517 12.4574C7.18516 12.3824 6.64514 11.8523 6.56014 11.1873C6.56014 11.1623 6.55514 11.1373 6.55014 11.1123C6.53514 10.9373 6.65014 10.7773 6.82015 10.7423L9.29021 10.2223C9.30021 10.2473 9.31521 10.2723 9.32521 10.2973C9.43521 10.5073 9.50022 10.7423 9.50022 10.9923V10.9873Z" fill="white"/>
<path d="M8.8651 9.27223L6.38504 9.79224C6.24503 9.82225 6.10503 9.76224 6.03003 9.64224C5.91002 9.45724 5.77002 9.28223 5.61502 9.12223C5.23501 8.72222 5 8.1772 5 7.57719C5 5.76714 5.93002 4.91212 7.25006 5.00712C8.34008 5.08713 9.39011 6.28216 9.49011 7.36718C9.53011 7.80219 9.44511 8.21721 9.27011 8.57221C9.20011 8.70722 9.15511 8.85222 9.1251 8.99722C9.1001 9.13223 9.0001 9.23723 8.8651 9.26723V9.27223Z" fill="white"/>
<path d="M10.5 13.5223C10.5 14.3923 11.255 15.0923 12.145 14.9923C12.8151 14.9173 13.3551 14.3873 13.4401 13.7223C13.4401 13.6973 13.4451 13.6723 13.4501 13.6473C13.4651 13.4723 13.3501 13.3123 13.1801 13.2773L10.71 12.7573C10.7 12.7823 10.685 12.8073 10.675 12.8323C10.565 13.0423 10.5 13.2773 10.5 13.5273V13.5223Z" fill="white"/>
<path d="M11.1348 11.8074L13.6148 12.3275C13.7548 12.3575 13.8948 12.2975 13.9698 12.1775C14.0898 11.9925 14.2298 11.8174 14.3848 11.6574C14.7649 11.2574 14.9999 10.7124 14.9999 10.1124C14.9999 8.30236 14.0698 7.44734 12.7498 7.54234C11.6598 7.62234 10.6098 8.81737 10.5097 9.9024C10.4697 10.3374 10.5547 10.7524 10.7298 11.1074C10.7998 11.2424 10.8448 11.3874 10.8748 11.5324C10.8998 11.6674 10.9998 11.7724 11.1348 11.8024V11.8074Z" fill="white"/>
</svg>
