<svg width="20" height="20" viewBox="0 0 20 20" fill="none" xmlns="http://www.w3.org/2000/svg">
<path d="M19.71 18.29L16.07 14.65C16.07 14.65 16.04 14.63 16.02 14.62C17.26 13.08 18 11.13 18 9C18 4.03 13.97 0 9 0C4.03 0 0 4.03 0 9C0 13.97 4.03 18 9 18C11.13 18 13.08 17.26 14.62 16.02C14.63 16.03 14.64 16.05 14.65 16.07L18.29 19.71C18.49 19.91 18.74 20 19 20C19.26 20 19.51 19.9 19.71 19.71C20.1 19.32 20.1 18.69 19.71 18.3V18.29ZM9 16C5.14 16 2 12.86 2 9C2 5.14 5.14 2 9 2C12.86 2 16 5.14 16 9C16 12.86 12.86 16 9 16Z" fill="#2D384A"/>
</svg>
