<svg width="28" height="28" viewBox="0 0 28 28" fill="none" xmlns="http://www.w3.org/2000/svg">
<g filter="url(#filter0_d_211_1566)">
<rect x="4.5" y="0.5" width="19" height="19" rx="9.5" fill="#448DFF" stroke="#2D384A"/>
<path d="M13.5002 10.9873C13.5002 11.8573 12.7452 12.5573 11.8552 12.4573C11.1852 12.3823 10.6451 11.8523 10.5601 11.1873C10.5601 11.1623 10.5551 11.1373 10.5501 11.1123C10.5351 10.9373 10.6501 10.7773 10.8201 10.7423L13.2902 10.2223C13.3002 10.2473 13.3152 10.2723 13.3252 10.2973C13.4352 10.5073 13.5002 10.7423 13.5002 10.9923V10.9873Z" fill="#2D384A"/>
<path d="M12.8651 9.27223L10.385 9.79224C10.245 9.82225 10.105 9.76224 10.03 9.64224C9.91002 9.45724 9.77002 9.28223 9.61502 9.12223C9.23501 8.72222 9 8.1772 9 7.57719C9 5.76714 9.93002 4.91212 11.2501 5.00712C12.3401 5.08713 13.3901 6.28216 13.4901 7.36718C13.5301 7.80219 13.4451 8.21721 13.2701 8.57221C13.2001 8.70722 13.1551 8.85222 13.1251 8.99722C13.1001 9.13223 13.0001 9.23723 12.8651 9.26723V9.27223Z" fill="#2D384A"/>
<path d="M14.5 13.5223C14.5 14.3923 15.255 15.0923 16.145 14.9923C16.8151 14.9173 17.3551 14.3873 17.4401 13.7223C17.4401 13.6973 17.4451 13.6723 17.4501 13.6473C17.4651 13.4723 17.3501 13.3123 17.1801 13.2773L14.71 12.7573C14.7 12.7823 14.685 12.8073 14.675 12.8323C14.565 13.0423 14.5 13.2773 14.5 13.5273V13.5223Z" fill="#2D384A"/>
<path d="M15.1348 11.8074L17.6148 12.3275C17.7548 12.3575 17.8948 12.2975 17.9698 12.1775C18.0898 11.9925 18.2298 11.8174 18.3848 11.6574C18.7649 11.2574 18.9999 10.7124 18.9999 10.1124C18.9999 8.30236 18.0698 7.44734 16.7498 7.54234C15.6598 7.62234 14.6098 8.81737 14.5097 9.9024C14.4697 10.3374 14.5547 10.7524 14.7298 11.1074C14.7998 11.2424 14.8448 11.3874 14.8748 11.5324C14.8998 11.6674 14.9998 11.7724 15.1348 11.8024V11.8074Z" fill="#2D384A"/>
</g>
<defs>
<filter id="filter0_d_211_1566" x="0" y="0" width="28" height="28" filterUnits="userSpaceOnUse" color-interpolation-filters="sRGB">
<feFlood flood-opacity="0" result="BackgroundImageFix"/>
<feColorMatrix in="SourceAlpha" type="matrix" values="0 0 0 0 0 0 0 0 0 0 0 0 0 0 0 0 0 0 127 0" result="hardAlpha"/>
<feOffset dy="4"/>
<feGaussianBlur stdDeviation="2"/>
<feComposite in2="hardAlpha" operator="out"/>
<feColorMatrix type="matrix" values="0 0 0 0 0 0 0 0 0 0 0 0 0 0 0 0 0 0 0.25 0"/>
<feBlend mode="normal" in2="BackgroundImageFix" result="effect1_dropShadow_211_1566"/>
<feBlend mode="normal" in="SourceGraphic" in2="effect1_dropShadow_211_1566" result="shape"/>
</filter>
</defs>
</svg>
