<svg width="126" height="66" viewBox="0 0 126 66" fill="none" xmlns="http://www.w3.org/2000/svg">
<path d="M31.2227 60V50.1016H34.5859C36.9102 50.1016 37.9629 51.4824 37.9629 53.2461C37.9629 54.9961 36.9102 56.4043 34.5996 56.4043H32.4531V60H31.2227ZM32.4531 55.3105H34.5449C36.1172 55.3105 36.7461 54.4219 36.7461 53.2461C36.7461 52.0566 36.1172 51.1953 34.5312 51.1953H32.4531V55.3105ZM39.1113 60H37.8262L41.4492 50.1016H42.748L46.3711 60H45.0723L44.0879 57.2109H40.1094L39.1113 60ZM40.4785 56.1309H43.7051L42.1328 51.7012H42.0508L40.4785 56.1309ZM47.7109 60V50.1016H48.9414V54.9961H49.0645L53.4668 50.1016H55.0801L50.9375 54.5723L55.0801 60H53.5762L50.1719 55.4199L48.9414 56.8145V60H47.7109ZM57.6367 50.1016V60H56.4062V50.1016H57.6367ZM59.8242 60V50.1016H61.0547V58.9062H65.6484V60H59.8242ZM67.2891 60V50.1016H73.291V51.1953H68.5195V54.5039H72.9766V55.584H68.5195V58.9062H73.3594V60H67.2891ZM75.2324 60V50.1016H76.4629V54.9961H76.5859L80.9883 50.1016H82.6016L78.459 54.5723L82.6016 60H81.0977L77.6934 55.4199L76.4629 56.8145V60H75.2324ZM84.3652 60H83.0801L86.7031 50.1016H88.002L91.625 60H90.3262L89.3418 57.2109H85.3633L84.3652 60ZM85.7324 56.1309H88.959L87.3867 51.7012H87.3047L85.7324 56.1309Z" fill="#959BA4"/>
<path d="M100.85 32.5307C100.85 28.4696 105.815 25.1782 111.945 25.1782C118.074 25.1782 123.039 28.4696 123.039 32.5307H100.853H100.85Z" fill="#2D384A"/>
<path d="M123.036 33H100.851C100.591 33 100.381 32.7904 100.381 32.5307C100.381 28.2162 105.569 24.7089 111.945 24.7089C118.321 24.7089 123.509 28.2162 123.509 32.5307C123.509 32.7904 123.299 33 123.039 33H123.036ZM101.342 32.0614H122.542C122.17 28.4852 117.558 25.6475 111.942 25.6475C106.326 25.6475 101.717 28.4852 101.342 32.0614Z" fill="#2D384A"/>
<path d="M111.942 27.8365C119.372 27.8365 125.396 23.8443 125.396 18.9197C125.396 13.995 119.372 10.0028 111.942 10.0028C104.512 10.0028 98.4885 13.995 98.4885 18.9197C98.4885 23.8443 104.512 27.8365 111.942 27.8365Z" fill="white"/>
<path d="M111.942 28.3064C104.265 28.3064 98.0197 24.0951 98.0197 18.9202C98.0197 13.7453 104.265 9.53406 111.942 9.53406C119.62 9.53406 125.865 13.7453 125.865 18.9202C125.865 24.0951 119.62 28.3064 111.942 28.3064ZM111.942 10.4727C104.784 10.4727 98.9583 14.2616 98.9583 18.9202C98.9583 23.5789 104.784 27.3678 111.942 27.3678C119.101 27.3678 124.927 23.5789 124.927 18.9202C124.927 14.2616 119.101 10.4727 111.942 10.4727Z" fill="#2D384A"/>
<path d="M110.23 11.4108L107.543 7.48113C106.711 6.26406 104.933 6.19523 104.02 7.35599C102.853 8.83587 101.958 11.1605 103.663 14.2267" fill="white"/>
<path d="M103.662 14.696C103.496 14.696 103.336 14.6084 103.252 14.455C101.396 11.1167 102.445 8.59494 103.652 7.06499C104.178 6.39545 104.973 6.02938 105.824 6.05754C106.681 6.0857 107.45 6.50808 107.932 7.21517L110.62 11.1449C110.767 11.3576 110.711 11.6517 110.498 11.7956C110.285 11.9427 109.991 11.8864 109.847 11.6736L107.16 7.74393C106.847 7.28713 106.349 7.0118 105.792 6.99303C105.242 6.97426 104.732 7.21204 104.391 7.64381C102.895 9.54294 102.789 11.6799 104.075 13.9983C104.2 14.2235 104.118 14.5114 103.893 14.6365C103.821 14.6772 103.743 14.696 103.665 14.696H103.662Z" fill="#2D384A"/>
<path d="M113.659 11.4108L116.347 7.48113C117.179 6.26406 118.956 6.19523 119.87 7.35599C121.037 8.83587 121.932 11.1605 120.227 14.2267" fill="white"/>
<path d="M120.232 14.6963C120.153 14.6963 120.075 14.6775 120.003 14.6368C119.778 14.5117 119.697 14.2238 119.822 13.9986C121.108 11.6802 121.001 9.54327 119.506 7.64413C119.165 7.21237 118.658 6.97771 118.104 6.99336C117.55 7.01213 117.05 7.28433 116.737 7.74425L114.049 11.6739C113.902 11.8867 113.611 11.943 113.398 11.796C113.186 11.6489 113.129 11.3579 113.276 11.1452L115.964 7.2155C116.449 6.50841 117.216 6.08603 118.073 6.05787C118.924 6.02658 119.715 6.39577 120.244 7.06532C121.449 8.59527 122.497 11.117 120.645 14.4554C120.56 14.6087 120.397 14.6963 120.235 14.6963H120.232Z" fill="#2D384A"/>
<path d="M116.952 25.804C116.952 27.7844 115.335 29.402 113.354 29.402H110.538C108.561 29.402 106.94 27.7813 106.94 25.804" fill="white"/>
<path d="M113.355 29.8712H110.539C108.295 29.8712 106.471 28.0472 106.471 25.8039C106.471 25.5442 106.681 25.3346 106.941 25.3346C107.2 25.3346 107.41 25.5442 107.41 25.8039C107.41 27.5278 108.815 28.9326 110.539 28.9326H113.355C115.079 28.9326 116.483 27.5278 116.483 25.8039C116.483 25.5442 116.693 25.3346 116.953 25.3346C117.212 25.3346 117.422 25.5442 117.422 25.8039C117.422 28.0472 115.598 29.8712 113.355 29.8712Z" fill="#2D384A"/>
<path d="M112.882 25.0214H111.005C110.4 25.0214 109.91 25.5116 109.91 26.1164C109.91 26.7212 110.4 27.2115 111.005 27.2115H112.882C113.487 27.2115 113.977 26.7212 113.977 26.1164C113.977 25.5116 113.487 25.0214 112.882 25.0214Z" fill="#2D384A"/>
<path d="M118.391 20.7515C119.552 19.5907 119.849 18.0059 119.055 17.2117C118.26 16.4175 116.676 16.7147 115.515 17.8754C114.354 19.0362 114.057 20.621 114.851 21.4152C115.645 22.2094 117.23 21.9122 118.391 20.7515Z" fill="white"/>
<path d="M116.032 22.3336C115.447 22.3336 114.915 22.1427 114.518 21.7454C113.526 20.7536 113.817 18.9076 115.181 17.5435C115.81 16.9146 116.573 16.4922 117.333 16.3483C118.159 16.195 118.888 16.3827 119.383 16.8802C119.88 17.3777 120.068 18.1067 119.915 18.9295C119.771 19.6898 119.348 20.4532 118.719 21.0821C117.9 21.9018 116.908 22.3336 116.029 22.3336H116.032ZM117.878 17.2337C117.759 17.2337 117.637 17.2463 117.509 17.2713C116.933 17.3808 116.342 17.7124 115.847 18.2068C114.887 19.1673 114.583 20.4845 115.184 21.0821C115.785 21.6828 117.102 21.3762 118.059 20.4188C118.554 19.9244 118.885 19.3331 118.995 18.7574C119.092 18.2443 118.995 17.8157 118.723 17.5435C118.519 17.3401 118.228 17.2369 117.878 17.2369V17.2337Z" fill="#2D384A"/>
<path d="M117.294 17.825C117.294 17.393 116.944 17.0428 116.512 17.0428C116.08 17.0428 115.729 17.393 115.729 17.825V19.4958C115.729 19.9278 116.08 20.2779 116.512 20.2779C116.944 20.2779 117.294 19.9278 117.294 19.4958V17.825Z" fill="#2D384A"/>
<path d="M109.043 21.4144C109.837 20.6202 109.54 19.0354 108.379 17.8746C107.219 16.7139 105.634 16.4167 104.84 17.2109C104.045 18.0051 104.342 19.5899 105.503 20.7507C106.664 21.9114 108.249 22.2086 109.043 21.4144Z" fill="white"/>
<path d="M107.873 22.3304C107.698 22.3304 107.514 22.3117 107.326 22.2773C106.566 22.1333 105.802 21.711 105.173 21.0821C103.809 19.718 103.518 17.872 104.51 16.8802C105.502 15.8884 107.348 16.1794 108.715 17.5435C109.344 18.1724 109.766 18.9358 109.91 19.6961C110.063 20.522 109.876 21.251 109.378 21.7454C108.993 22.1302 108.474 22.3273 107.876 22.3273L107.873 22.3304ZM106.015 17.2338C105.677 17.2338 105.38 17.3339 105.173 17.5404C104.573 18.1411 104.879 19.4583 105.837 20.4157C106.331 20.91 106.922 21.2417 107.498 21.3512C108.008 21.4481 108.44 21.3512 108.712 21.079C108.984 20.8068 109.081 20.375 108.984 19.865C108.875 19.2893 108.543 18.698 108.049 18.2037C107.423 17.5779 106.647 17.2306 106.015 17.2306V17.2338Z" fill="#2D384A"/>
<path d="M106.6 19.4959C106.6 19.9279 106.95 20.2781 107.382 20.2781C107.814 20.2781 108.165 19.9279 108.165 19.4959V17.8252C108.165 17.3932 107.814 17.043 107.382 17.043C106.95 17.043 106.6 17.3932 106.6 17.8252V19.4959Z" fill="#2D384A"/>
<path d="M88.4593 21.5789C88.4593 20.8155 88.572 20.0802 88.7847 19.3888H82.8151C83.0278 20.0802 83.1405 20.8155 83.1405 21.5789C83.1405 24.4386 81.5386 26.9228 79.1826 28.1868C76.8267 26.9196 75.2248 24.4354 75.2248 21.5789C75.2248 20.8155 75.3374 20.0802 75.5502 19.3888H69.5806C69.7933 20.0802 69.906 20.8155 69.906 21.5789C69.906 24.5262 68.2039 27.0792 65.7291 28.3057H92.6362C90.1613 27.0792 88.4593 24.5262 88.4593 21.5789Z" fill="#2D384A"/>
<path d="M92.6366 28.775H65.7296C65.5106 28.775 65.3229 28.6248 65.2728 28.4121C65.2227 28.1993 65.326 27.9803 65.52 27.8833C67.9353 26.685 69.4371 24.2696 69.4371 21.5758C69.4371 20.8718 69.3339 20.1804 69.1336 19.5234C69.0898 19.3794 69.1149 19.2261 69.2056 19.1072C69.2963 18.9883 69.434 18.9164 69.5842 18.9164H75.5538C75.704 18.9164 75.8416 18.9883 75.9324 19.1072C76.0231 19.2261 76.0481 19.3826 76.0043 19.5234C75.801 20.1804 75.7008 20.8718 75.7008 21.5758C75.7008 24.0819 77.0306 26.3847 79.1894 27.6455C81.3482 26.3847 82.6779 24.0819 82.6779 21.5758C82.6779 20.8718 82.5746 20.1804 82.3744 19.5234C82.3306 19.3794 82.3556 19.2261 82.4464 19.1072C82.5371 18.9883 82.6748 18.9164 82.8249 18.9164H88.7946C88.9447 18.9164 89.0824 18.9883 89.1731 19.1072C89.2639 19.2261 89.2889 19.3826 89.2451 19.5234C89.0417 20.1804 88.9416 20.8718 88.9416 21.5758C88.9416 24.2696 90.4434 26.685 92.8588 27.8833C93.0528 27.9803 93.156 28.1993 93.1059 28.4121C93.0559 28.6248 92.8682 28.775 92.6492 28.775H92.6366ZM80.5723 27.8364H91.0191C89.1199 26.344 87.9936 24.0663 87.9936 21.5789C87.9936 20.9939 88.0562 20.4182 88.1782 19.8581H83.4257C83.5477 20.4182 83.6103 20.9939 83.6103 21.5789C83.6103 24.0444 82.4745 26.3377 80.5723 27.8364ZM67.3503 27.8364H77.7971C75.8948 26.3377 74.7591 24.0444 74.7591 21.5789C74.7591 20.9939 74.8217 20.4182 74.9437 19.8581H70.1912C70.3163 20.4182 70.3758 20.9939 70.3758 21.5789C70.3758 24.0663 69.2463 26.344 67.3503 27.8364Z" fill="#2D384A"/>
<path d="M68.0908 32.5302C68.0908 28.4692 73.0561 25.1777 79.1853 25.1777C85.3145 25.1777 90.2797 28.4692 90.2797 32.5302H68.094H68.0908Z" fill="white"/>
<path d="M90.2771 32.9995H68.0913C67.8316 32.9995 67.6219 32.7899 67.6219 32.5302C67.6219 28.2157 72.8094 24.7084 79.1857 24.7084C85.5621 24.7084 90.7495 28.2157 90.7495 32.5302C90.7495 32.7899 90.5399 32.9995 90.2802 32.9995H90.2771ZM68.5856 32.0609H89.7858C89.4135 28.4847 84.8018 25.647 79.1857 25.647C73.5697 25.647 68.961 28.4847 68.5856 32.0609Z" fill="#2D384A"/>
<path d="M72.2017 15.1684C74.5794 15.1684 76.5069 13.2339 76.5069 10.8476C76.5069 8.46133 74.5794 6.52686 72.2017 6.52686C69.8241 6.52686 67.8966 8.46133 67.8966 10.8476C67.8966 13.2339 69.8241 15.1684 72.2017 15.1684Z" fill="white"/>
<path d="M72.2022 15.6346C69.5678 15.6346 67.4277 13.4852 67.4277 10.8445C67.4277 8.20388 69.5709 6.05444 72.2022 6.05444C74.8334 6.05444 76.9766 8.20388 76.9766 10.8445C76.9766 13.4852 74.8334 15.6346 72.2022 15.6346ZM72.2022 6.99619C70.0871 6.99619 68.3664 8.72325 68.3664 10.8477C68.3664 12.9721 70.0871 14.6991 72.2022 14.6991C74.3172 14.6991 76.038 12.9721 76.038 10.8477C76.038 8.72325 74.3172 6.99619 72.2022 6.99619Z" fill="#2D384A"/>
<path d="M85.4903 15.1684C87.868 15.1684 89.7954 13.2339 89.7954 10.8476C89.7954 8.46133 87.868 6.52686 85.4903 6.52686C83.1127 6.52686 81.1852 8.46133 81.1852 10.8476C81.1852 13.2339 83.1127 15.1684 85.4903 15.1684Z" fill="white"/>
<path d="M85.4907 15.6346C82.8564 15.6346 80.7163 13.4852 80.7163 10.8445C80.7163 8.20388 82.8595 6.05444 85.4907 6.05444C88.122 6.05444 90.2652 8.20388 90.2652 10.8445C90.2652 13.4852 88.122 15.6346 85.4907 15.6346ZM85.4907 6.99619C83.3757 6.99619 81.6549 8.72325 81.6549 10.8477C81.6549 12.9721 83.3757 14.6991 85.4907 14.6991C87.6058 14.6991 89.3266 12.9721 89.3266 10.8477C89.3266 8.72325 87.6058 6.99619 85.4907 6.99619Z" fill="#2D384A"/>
<path d="M89.4325 15.8129C89.0633 14.624 88.4094 13.5008 87.4771 12.5591L83.391 8.42914C80.8848 5.89488 76.8175 5.89488 74.3114 8.42914L70.2253 12.5591C69.9906 12.7937 69.7747 13.0409 69.5776 13.2974C69.1803 13.8106 68.8549 14.3612 68.5983 14.9338C68.4701 15.2216 68.3606 15.5157 68.2698 15.8129C68.0227 16.5951 67.9006 17.4086 67.9006 18.2221C67.9006 20.2714 68.6766 22.3207 70.2253 23.8882C72.5562 26.2472 75.979 26.8292 78.8512 25.6371C79.8148 26.0376 80.8442 26.2379 81.8704 26.2379C83.8978 26.2379 85.9284 25.4557 87.4771 23.8882C89.6422 21.7043 90.2961 18.5693 89.4325 15.8129Z" fill="white"/>
<path d="M75.83 26.7102C73.6462 26.7102 71.503 25.8467 69.8948 24.2166C68.3086 22.6147 67.4357 20.4841 67.4357 18.222C67.4357 17.3522 67.5671 16.4918 67.8268 15.6689C67.9238 15.3561 68.0426 15.0432 68.174 14.7428C68.4494 14.1265 68.7967 13.5445 69.2097 13.0095C69.4224 12.7342 69.6508 12.4714 69.8948 12.2273L73.981 8.09742C75.2825 6.78336 77.0127 6.0575 78.8555 6.0575C80.6983 6.0575 82.4285 6.78023 83.7301 8.09742L87.8162 12.2273C88.7705 13.191 89.4869 14.383 89.8874 15.6721C90.8354 18.6975 90.0407 21.9733 87.8162 24.2166C86.2299 25.8217 84.118 26.704 81.8747 26.704C80.8329 26.704 79.8192 26.5131 78.8555 26.1408C77.87 26.5225 76.8469 26.7102 75.83 26.7102ZM78.8524 6.99611C77.263 6.99611 75.7706 7.62186 74.6474 8.75759L70.5613 12.8875C70.3454 13.1065 70.1389 13.3412 69.9512 13.5852C69.5851 14.0608 69.2754 14.5801 69.0313 15.1277C68.9124 15.3967 68.8092 15.6752 68.7216 15.9537C68.49 16.6858 68.3743 17.4492 68.3743 18.2251C68.3743 20.24 69.1502 22.1329 70.5644 23.5596C72.6982 25.7184 75.8832 26.3629 78.6772 25.2053L78.8586 25.1302L79.0401 25.2053C79.9412 25.5807 80.8986 25.7716 81.881 25.7716C83.8709 25.7716 85.745 24.9863 87.1529 23.5627C89.1334 21.5666 89.8373 18.6506 88.9926 15.9568C88.6359 14.8085 88.0008 13.7479 87.1529 12.8906L83.0668 8.76071C81.9436 7.62499 80.448 6.99924 78.8618 6.99924L78.8524 6.99611Z" fill="#2D384A"/>
<path d="M87.5169 12.5998C86.6628 13.0378 85.6647 13.2881 84.6041 13.2881C81.735 13.2881 79.354 11.461 78.916 9.07061C78.8722 8.81405 78.8472 8.55124 78.8472 8.28217C78.8472 8.55124 78.8222 8.82344 78.7784 9.08C78.3372 11.4641 75.9594 13.2881 73.0903 13.2881C72.0297 13.2881 71.0316 13.0378 70.1775 12.5998C70.1931 12.5842 70.2056 12.5717 70.2213 12.556L74.3074 8.42609C76.8135 5.89182 80.8809 5.89182 83.387 8.42609L87.4731 12.556C87.4887 12.5717 87.5012 12.5842 87.5169 12.5998Z" fill="#2D384A"/>
<path d="M84.6046 13.7574C82.0265 13.7574 79.7895 12.3964 78.8477 10.3815C77.9028 12.3964 75.6689 13.7574 73.0909 13.7574C71.9895 13.7574 70.907 13.5008 69.9653 13.0159C69.8307 12.947 69.74 12.8187 69.715 12.6717C69.6899 12.5246 69.74 12.3745 69.8464 12.2681L69.8933 12.2212L73.9763 8.09437C75.2778 6.78031 77.008 6.05444 78.8508 6.05444C80.6937 6.05444 82.4238 6.78031 83.7254 8.09437L87.8522 12.265C87.9586 12.3713 88.0086 12.5215 87.9836 12.6686C87.9586 12.8156 87.8678 12.9439 87.7333 13.0127C86.7884 13.4977 85.709 13.7542 84.6077 13.7542L84.6046 13.7574ZM79.317 8.2821C79.317 8.51049 79.3389 8.75141 79.3796 8.99232C79.7801 11.173 82.0265 12.8187 84.6046 12.8187C85.3304 12.8187 86.0469 12.6905 86.7039 12.4464L83.0527 8.75766C81.9295 7.62194 80.4371 6.99619 78.8477 6.99619C77.2583 6.99619 75.7659 7.62194 74.6427 8.75766L70.9915 12.4464C71.6485 12.6905 72.365 12.8187 73.0909 12.8187C75.6658 12.8187 77.9154 11.1762 78.3158 8.99545C78.3565 8.76392 78.3784 8.51675 78.3784 8.2821C78.3784 8.02241 78.588 7.81279 78.8477 7.81279C79.1074 7.81279 79.317 8.02241 79.317 8.2821Z" fill="#2D384A"/>
<path d="M75.875 17.5118C75.875 17.0798 75.5248 16.7296 75.0929 16.7296C74.6609 16.7296 74.3107 17.0798 74.3107 17.5118V17.8247C74.3107 18.2567 74.6609 18.6068 75.0929 18.6068C75.5248 18.6068 75.875 18.2567 75.875 17.8247V17.5118Z" fill="#2D384A"/>
<path d="M83.6957 17.5118C83.6957 17.0798 83.3455 16.7296 82.9135 16.7296C82.4815 16.7296 82.1313 17.0798 82.1313 17.5118V17.8247C82.1313 18.2567 82.4815 18.6068 82.9135 18.6068C83.3455 18.6068 83.6957 18.2567 83.6957 17.8247V17.5118Z" fill="#2D384A"/>
<path d="M78.8479 22.0487C78.2002 22.0487 77.6339 21.617 77.465 20.9912L77.3085 20.4155C77.0582 19.5019 77.7465 18.604 78.6914 18.604H79.0043C79.9492 18.604 80.6375 19.5019 80.3872 20.4155L80.2307 20.9912C80.0618 21.6138 79.4955 22.0487 78.8479 22.0487Z" fill="#2D384A"/>
<path d="M83.0734 24.5514C83.0734 26.8854 81.1837 28.7752 78.8496 28.7752C76.5156 28.7752 74.6259 26.8854 74.6259 24.5514" fill="white"/>
<path d="M78.8502 29.2449C76.2627 29.2449 74.1571 27.1393 74.1571 24.5518C74.1571 24.2921 74.3667 24.0825 74.6264 24.0825C74.8861 24.0825 75.0957 24.2921 75.0957 24.5518C75.0957 26.623 76.779 28.3063 78.8502 28.3063C80.9214 28.3063 82.6047 26.623 82.6047 24.5518C82.6047 24.2921 82.8143 24.0825 83.074 24.0825C83.3337 24.0825 83.5433 24.2921 83.5433 24.5518C83.5433 27.1393 81.4377 29.2449 78.8502 29.2449Z" fill="#2D384A"/>
<path d="M81.1943 23.1833V24.5505C81.1943 25.8458 80.1431 26.8971 78.8478 26.8971C77.5525 26.8971 76.5012 25.8458 76.5012 24.5505V23.1802C76.6107 23.224 76.7234 23.2552 76.8423 23.274C76.9361 23.2897 77.03 23.299 77.127 23.299C77.6588 23.299 78.1344 23.0581 78.4504 22.6764C78.6444 22.4449 78.7789 22.1633 78.829 21.8536C78.8415 21.7628 78.8478 21.6721 78.8478 21.5782C78.8478 21.6721 78.8571 21.7597 78.8697 21.8504C78.9197 22.1539 79.0449 22.4324 79.2295 22.6608C79.5455 23.0487 80.0273 23.299 80.5686 23.299C80.6718 23.299 80.7751 23.2897 80.8752 23.2709C80.9847 23.2521 81.0911 23.2208 81.1943 23.1833Z" fill="#2D384A"/>
<path d="M78.8482 27.3663C77.2964 27.3663 76.0323 26.1023 76.0323 24.5505V23.1801C76.0323 23.0237 76.1106 22.8797 76.2388 22.7921C76.3671 22.7045 76.5329 22.6858 76.6769 22.7452C76.7551 22.7765 76.8333 22.7984 76.9178 22.8109C76.9303 22.8109 76.9428 22.814 76.9553 22.8172C77.3746 22.8672 77.8157 22.7077 78.0911 22.376C78.2381 22.2008 78.332 21.9943 78.3664 21.7784C78.3758 21.719 78.3789 21.6502 78.3789 21.5782C78.3789 21.3185 78.5885 21.1089 78.8482 21.1089C79.1079 21.1089 79.3175 21.3185 79.3175 21.5782C79.3175 21.6502 79.3238 21.7159 79.3363 21.7878C79.3707 21.9943 79.4614 22.2008 79.596 22.3666C79.8838 22.7202 80.3531 22.8923 80.7911 22.8109C80.8694 22.7984 80.9476 22.7765 81.0352 22.7421C81.1791 22.6889 81.3387 22.7108 81.4638 22.7984C81.589 22.886 81.6641 23.0299 81.6641 23.1832V24.5505C81.6641 26.1023 80.4001 27.3663 78.8482 27.3663ZM76.971 23.762V24.5505C76.971 25.5861 77.8126 26.4277 78.8482 26.4277C79.8838 26.4277 80.7254 25.5861 80.7254 24.5505V23.762C80.0183 23.8152 79.3175 23.5117 78.867 22.958C78.8607 22.9486 78.8545 22.9423 78.8482 22.9329C78.8357 22.9486 78.8232 22.9642 78.8107 22.9767C78.3945 23.4773 77.7813 23.7683 77.1274 23.7683C77.0742 23.7683 77.021 23.7683 76.971 23.762Z" fill="#2D384A"/>
<path d="M76.7637 24.2506C76.6135 23.8407 76.6511 23.5216 76.8388 23.2776C76.9326 23.2901 77.0265 23.2995 77.1235 23.2995C77.6554 23.2995 78.1309 23.0586 78.4469 22.6769C78.6847 22.6581 78.9538 22.6487 79.226 22.6612C79.542 23.0492 80.0238 23.2995 80.5651 23.2995C80.6683 23.2995 80.7716 23.2901 80.8717 23.2713C80.9061 23.3214 80.9374 23.3746 80.9656 23.4309L80.9781 23.4716C81.463 25.355 77.4426 25.7743 76.7637 24.2506Z" fill="white"/>
<path d="M78.7638 25.6492C77.722 25.6492 76.702 25.2612 76.3359 24.4415L76.3234 24.4133C76.07 23.7219 76.2608 23.2588 76.4673 22.9929L76.6332 22.777L76.9022 22.8114C76.9742 22.8208 77.0493 22.8302 77.1244 22.8302C77.4967 22.8302 77.8471 22.6644 78.0849 22.3765L78.2132 22.2232L78.4103 22.2076C78.7044 22.1857 78.986 22.1794 79.2488 22.1919L79.4584 22.2013L79.5898 22.364C79.8776 22.7176 80.3501 22.8928 80.785 22.8083L81.0853 22.752L81.2574 23.0023C81.3044 23.0711 81.345 23.1431 81.3826 23.2181L81.4232 23.3308C81.6642 24.26 81.1417 25.0578 80.0685 25.4333C79.6618 25.5741 79.2081 25.6492 78.7576 25.6492H78.7638ZM77.1995 24.0754C77.4779 24.6605 78.7638 24.9014 79.765 24.551C80.1342 24.4227 80.5472 24.1849 80.5472 23.7719C79.9684 23.7657 79.4209 23.5341 79.0141 23.1274C78.9015 23.1274 78.7857 23.1274 78.6668 23.1337C78.2632 23.5373 77.7188 23.7657 77.1431 23.7688C77.1431 23.8439 77.1557 23.9409 77.2026 24.0723L77.1995 24.0754Z" fill="#2D384A"/>
<path d="M80.5683 23.7689C79.905 23.7689 79.2855 23.4717 78.8662 22.9585C78.86 22.9492 78.8537 22.9429 78.8475 22.9335C78.835 22.9492 78.8224 22.9648 78.8099 22.9773C78.3938 23.4779 77.7806 23.7689 77.1267 23.7689C76.9921 23.7689 76.8701 23.7564 76.7794 23.7439C76.7544 23.7407 76.7293 23.7345 76.7074 23.7282C76.576 23.7032 76.4509 23.6656 76.3257 23.6187C75.7187 23.384 75.2494 22.8897 75.0461 22.264C74.9647 22.0168 75.0993 21.754 75.3464 21.6726C75.5936 21.5944 75.8564 21.7258 75.9378 21.973C76.0535 22.3297 76.3195 22.6113 76.6699 22.7458C76.7512 22.7802 76.8326 22.799 76.9139 22.8146C76.9264 22.8146 76.939 22.8209 76.9546 22.824C77.3738 22.8741 77.8119 22.7145 78.0872 22.3829C78.2342 22.2076 78.3281 22.0012 78.3625 21.7853C78.3719 21.7258 78.375 21.657 78.375 21.585C78.375 21.3253 78.5847 21.1157 78.8443 21.1157C79.104 21.1157 79.3137 21.3253 79.3137 21.585C79.3137 21.657 79.3199 21.7227 79.3324 21.7947C79.3668 22.0012 79.4576 22.2076 79.5921 22.3735C79.833 22.6676 80.1866 22.8365 80.5651 22.8365C80.6402 22.8365 80.7153 22.8303 80.7842 22.8178C80.8624 22.8052 80.9406 22.7833 81.0282 22.7489C81.3661 22.6144 81.6352 22.3328 81.7509 21.9761C81.8323 21.729 82.0982 21.5944 82.3423 21.6758C82.5894 21.7571 82.724 22.0199 82.6426 22.2671C82.4392 22.8897 81.9731 23.384 81.3598 23.625C81.2065 23.6813 81.0751 23.7157 80.9469 23.7376C80.8248 23.7595 80.6934 23.772 80.562 23.772L80.5683 23.7689Z" fill="#2D384A"/>
<path d="M35.3469 32.5304C35.3469 28.4693 40.3122 25.1779 46.4414 25.1779C52.5706 25.1779 57.5358 28.4693 57.5358 32.5304H35.3501H35.3469Z" fill="white"/>
<path d="M57.5332 32.9996H35.3474C35.0877 32.9996 34.8781 32.79 34.8781 32.5303C34.8781 28.2158 40.0655 24.7085 46.4418 24.7085C52.8182 24.7085 58.0056 28.2158 58.0056 32.5303C58.0056 32.79 57.796 32.9996 57.5363 32.9996H57.5332ZM35.8417 32.061H57.0419C56.6696 28.4849 52.0579 25.6471 46.4418 25.6471C40.8258 25.6471 36.2171 28.4849 35.8417 32.061Z" fill="#2D384A"/>
<path d="M46.443 28.4631C52.4908 28.4631 57.3935 24.0506 57.3935 18.6076C57.3935 13.1645 52.4908 8.75208 46.443 8.75208C40.3952 8.75208 35.4924 13.1645 35.4924 18.6076C35.4924 24.0506 40.3952 28.4631 46.443 28.4631Z" fill="white"/>
<path d="M46.4434 28.9323C40.1453 28.9323 35.0236 24.3018 35.0236 18.6075C35.0236 12.9132 40.1453 8.28271 46.4434 8.28271C52.7415 8.28271 57.8633 12.9132 57.8633 18.6075C57.8633 24.3018 52.7415 28.9323 46.4434 28.9323ZM46.4434 9.22133C40.6646 9.22133 35.9622 13.4326 35.9622 18.6075C35.9622 23.7824 40.6646 27.9937 46.4434 27.9937C52.2222 27.9937 56.9246 23.7824 56.9246 18.6075C56.9246 13.4326 52.2222 9.22133 46.4434 9.22133Z" fill="#2D384A"/>
<path d="M35.3721 10.625L37.0021 13.0091C37.6811 14.0009 39.1078 14.1166 39.9212 13.2343C40.9537 12.1111 41.9674 10.3528 41.4668 8.02813C41.2165 6.86737 39.9776 6.21347 38.8856 6.68278L36.1793 7.84353C35.0905 8.30971 34.7025 9.65194 35.369 10.6281L35.3721 10.625Z" fill="#2D384A"/>
<path d="M38.5614 14.2981C38.5051 14.2981 38.4488 14.2981 38.3893 14.2919C37.6697 14.2387 37.0221 13.8695 36.6122 13.2719L34.9822 10.8878C34.5848 10.3059 34.469 9.58312 34.6662 8.90731C34.8633 8.23151 35.3482 7.68398 35.9959 7.40552L38.7022 6.24477C39.3467 5.96944 40.0757 5.99447 40.7015 6.31673C41.3303 6.64211 41.7778 7.22719 41.9279 7.92489C42.4755 10.4842 41.3272 12.3958 40.2666 13.5472C39.8254 14.0259 39.2122 14.295 38.5614 14.295V14.2981ZM35.7612 10.359L37.3913 12.7431C37.6353 13.1029 38.0264 13.3251 38.4613 13.3564C38.8837 13.3845 39.2935 13.225 39.5783 12.9152C40.9017 11.476 41.3835 9.8647 41.0112 8.12513C40.9205 7.70588 40.6514 7.35233 40.2728 7.15523C39.8974 6.96124 39.4625 6.9456 39.0745 7.11142L36.3682 8.27218C35.9802 8.438 35.6893 8.76652 35.5704 9.17325C35.4515 9.57999 35.5203 10.0118 35.7612 10.3622V10.359Z" fill="#2D384A"/>
<path d="M57.5124 10.625L55.8823 13.0091C55.2034 14.0009 53.7767 14.1166 52.9632 13.2343C51.9307 12.1111 50.917 10.3528 51.4176 8.02813C51.6679 6.86737 52.9069 6.21347 53.9988 6.68278L56.7052 7.84353C57.794 8.30971 58.1819 9.65194 57.5155 10.6281L57.5124 10.625Z" fill="#2D384A"/>
<path d="M54.3206 14.2982C53.673 14.2982 53.0566 14.0323 52.6155 13.5504C51.5548 12.3991 50.4066 10.4874 50.9541 7.92811C51.1043 7.23353 51.5486 6.64533 52.1806 6.31994C52.8063 5.99768 53.5322 5.96952 54.1798 6.24798L56.8862 7.40874C57.5338 7.68719 58.0188 8.23472 58.2159 8.91053C58.413 9.58633 58.2972 10.3091 57.8999 10.891L56.2698 13.2751C55.8631 13.8696 55.2154 14.2419 54.4927 14.2951C54.4364 14.2982 54.3769 14.3013 54.3206 14.3013V14.2982ZM53.2569 6.99575C53.0347 6.99575 52.8157 7.04893 52.6123 7.15218C52.2338 7.34929 51.9647 7.70284 51.874 8.12209C51.5016 9.86166 51.9835 11.473 53.3069 12.9122C53.5916 13.2219 53.9984 13.3815 54.4239 13.3533C54.8588 13.322 55.2467 13.0999 55.4939 12.7401L57.124 10.356C57.3617 10.0056 57.4306 9.57382 57.3148 9.16708C57.1991 8.76035 56.905 8.43183 56.517 8.26601L53.8106 7.10525C53.6323 7.03016 53.4446 6.99262 53.2569 6.99262V6.99575Z" fill="#2D384A"/>
<path d="M42.6907 23.1439C42.6907 21.0789 44.3802 19.3894 46.4451 19.3894C48.5101 19.3894 50.1996 21.0789 50.1996 23.1439" fill="white"/>
<path d="M50.2001 23.6136C49.9404 23.6136 49.7307 23.404 49.7307 23.1443C49.7307 21.3328 48.2571 19.8592 46.4456 19.8592C44.634 19.8592 43.1604 21.3328 43.1604 23.1443C43.1604 23.404 42.9508 23.6136 42.6911 23.6136C42.4314 23.6136 42.2218 23.404 42.2218 23.1443C42.2218 20.8165 44.1178 18.9205 46.4456 18.9205C48.7734 18.9205 50.6694 20.8165 50.6694 23.1443C50.6694 23.404 50.4597 23.6136 50.2001 23.6136Z" fill="#2D384A"/>
<path d="M48.4729 23.457C48.4729 24.5771 47.5593 25.4907 46.4392 25.4907C45.3222 25.4907 44.4055 24.5771 44.4055 23.457" fill="white"/>
<path d="M46.4396 25.96C45.0599 25.96 43.9366 24.8367 43.9366 23.457C43.9366 23.1973 44.1463 22.9877 44.406 22.9877C44.6656 22.9877 44.8753 23.1973 44.8753 23.457C44.8753 24.3205 45.5761 25.0213 46.4396 25.0213C47.3032 25.0213 48.004 24.3205 48.004 23.457C48.004 23.1973 48.2136 22.9877 48.4733 22.9877C48.733 22.9877 48.9426 23.1973 48.9426 23.457C48.9426 24.8367 47.8194 25.96 46.4396 25.96Z" fill="#2D384A"/>
<path d="M47.5367 20.4845C47.5367 19.8797 47.0464 19.3894 46.4416 19.3894C45.8368 19.3894 45.3466 19.8797 45.3466 20.4845C45.3466 21.0892 45.8368 21.5795 46.4416 21.5795C47.0464 21.5795 47.5367 21.0892 47.5367 20.4845Z" fill="#2D384A"/>
<path d="M43.3145 17.512C43.3145 17.0801 42.9643 16.7299 42.5323 16.7299C42.1003 16.7299 41.7501 17.0801 41.7501 17.512V17.8249C41.7501 18.2569 42.1003 18.6071 42.5323 18.6071C42.9643 18.6071 43.3145 18.2569 43.3145 17.8249V17.512Z" fill="#2D384A"/>
<path d="M51.1352 17.512C51.1352 17.0801 50.785 16.7299 50.353 16.7299C49.921 16.7299 49.5708 17.0801 49.5708 17.512V17.8249C49.5708 18.2569 49.921 18.6071 50.353 18.6071C50.785 18.6071 51.1352 18.2569 51.1352 17.8249V17.512Z" fill="#2D384A"/>
<path d="M41.6023 27.7589C41.6023 27.7589 37.8447 24.552 37.05 26.1163C36.2553 27.6807 40.9328 29.7143 40.9328 29.7143" fill="white"/>
<path d="M40.9311 30.1836C40.8685 30.1836 40.806 30.1711 40.7434 30.1461C40.3773 29.9865 37.136 28.5411 36.579 26.9892C36.4445 26.6138 36.4633 26.2383 36.6322 25.9067C36.8106 25.5531 37.1109 25.3279 37.4989 25.2496C38.9537 24.9587 41.4286 26.9955 41.9104 27.4053C42.1075 27.5743 42.1325 27.8684 41.9636 28.0655C41.7946 28.2626 41.5005 28.2845 41.3034 28.1187C40.249 27.2207 38.425 26.0193 37.6866 26.1695C37.5834 26.1914 37.5239 26.2352 37.4739 26.3322C37.4394 26.401 37.4082 26.5011 37.4676 26.6732C37.7867 27.5586 39.8799 28.7476 41.1251 29.2888C41.3629 29.3921 41.4724 29.6674 41.3691 29.9052C41.2909 30.0804 41.1188 30.1868 40.9374 30.1868L40.9311 30.1836Z" fill="#2D384A"/>
<path d="M51.0325 27.7593C51.0325 27.7593 54.7901 24.5523 55.5848 26.1167C56.3795 27.681 51.702 29.7147 51.702 29.7147" fill="white"/>
<path d="M51.7021 30.1843C51.5206 30.1843 51.3485 30.0779 51.2703 29.9027C51.167 29.6649 51.2766 29.3896 51.5143 29.2863C52.7596 28.7451 54.8527 27.5561 55.1718 26.6707C55.2344 26.4986 55.2 26.3985 55.1656 26.3297C55.1155 26.2327 55.0561 26.1889 54.9528 26.167C54.2113 26.0168 52.3904 27.2182 51.336 28.1162C51.1389 28.2851 50.8417 28.2601 50.6758 28.063C50.5069 27.8659 50.5319 27.5687 50.729 27.4028C51.2109 26.993 53.6825 24.953 55.1405 25.2471C55.5285 25.3254 55.8257 25.5506 56.0072 25.9042C56.1761 26.2358 56.1949 26.6113 56.0604 26.9867C55.5035 28.5386 52.2621 29.984 51.896 30.1436C51.8366 30.1686 51.7709 30.1811 51.7083 30.1811L51.7021 30.1843Z" fill="#2D384A"/>
<path d="M43.0473 12.0369C42.4842 12.4311 42.3903 13.5293 42.8721 14.058C43.354 14.5868 44.2425 14.3553 44.5053 13.6356C44.3583 14.0111 44.4678 14.4804 44.6962 14.787C44.9246 15.0936 45.2562 15.2626 45.5879 15.3721C45.9164 15.4816 46.2762 15.5379 46.5922 15.3877C46.9082 15.2376 47.1616 14.8214 47.0897 14.4178C47.4182 15.0749 48.1753 15.3877 48.7354 15.0279C49.2954 14.6681 49.4863 13.6356 49.0608 13.0662" fill="white"/>
<path d="M46.1672 15.9479C45.945 15.9479 45.7041 15.9041 45.4413 15.8165C44.9438 15.6538 44.5778 15.4066 44.3244 15.0687C44.2367 14.9529 44.1648 14.8247 44.1085 14.6933C44.0115 14.7371 43.9082 14.7683 43.805 14.7871C43.3263 14.881 42.8476 14.7277 42.5253 14.371C42.1999 14.0143 42.0435 13.4637 42.1061 12.9005C42.1655 12.3624 42.4096 11.9056 42.7788 11.649C42.9915 11.4988 43.2825 11.552 43.4327 11.7648C43.5828 11.9775 43.5297 12.2685 43.3169 12.4187C43.173 12.5188 43.0666 12.7441 43.0384 13.0069C43.0072 13.2978 43.076 13.5857 43.2199 13.7421C43.3576 13.8954 43.5328 13.886 43.6235 13.8673C43.7737 13.836 43.9677 13.7233 44.0584 13.4918C44.0615 13.4824 44.0647 13.4699 44.0709 13.4605C44.1648 13.2227 44.4339 13.1039 44.6748 13.1946C44.9157 13.2853 45.0377 13.5544 44.9501 13.7953C44.947 13.8047 44.9438 13.8141 44.9407 13.8235C44.8719 14.0206 44.9282 14.3084 45.0784 14.5055C45.216 14.6901 45.4257 14.8215 45.7417 14.9279C46.0326 15.0249 46.2454 15.0374 46.3987 14.9654C46.5364 14.8997 46.6678 14.687 46.6365 14.5024C46.5958 14.274 46.7272 14.0456 46.9494 13.9736C47.1715 13.8986 47.4124 14.0018 47.5188 14.2083C47.6377 14.4461 47.8442 14.6275 48.0694 14.687C48.1758 14.7152 48.3354 14.7308 48.4887 14.6338C48.642 14.5368 48.764 14.3115 48.8109 14.0519C48.861 13.7797 48.8141 13.5106 48.6921 13.3479C48.5356 13.1414 48.5794 12.8473 48.7859 12.6909C48.9924 12.5344 49.2865 12.5782 49.4429 12.7847C49.7245 13.1602 49.8309 13.6827 49.7339 14.2177C49.6401 14.7402 49.371 15.1813 48.9955 15.4222C48.6483 15.6444 48.2321 15.707 47.8191 15.5943C47.6408 15.5443 47.475 15.4692 47.3217 15.3659C47.1903 15.5568 47.0119 15.7132 46.8023 15.8133C46.6083 15.9041 46.4018 15.951 46.1734 15.951L46.1672 15.9479Z" fill="#2D384A"/>
<path d="M42.9746 32.217C42.7149 32.217 42.5052 32.0074 42.5052 31.7477V29.7141C42.5052 29.4544 42.7149 29.2448 42.9746 29.2448C43.2342 29.2448 43.4439 29.4544 43.4439 29.7141V31.7477C43.4439 32.0074 43.2342 32.217 42.9746 32.217Z" fill="#2D384A"/>
<path d="M50.4813 32.217C50.2216 32.217 50.012 32.0074 50.012 31.7477V29.7141C50.012 29.4544 50.2216 29.2448 50.4813 29.2448C50.741 29.2448 50.9506 29.4544 50.9506 29.7141V31.7477C50.9506 32.0074 50.741 32.217 50.4813 32.217Z" fill="#2D384A"/>
<path d="M24.9395 32.5308C24.9395 32.512 24.9395 32.4933 24.9395 32.4745C26.0659 32.2304 26.9106 31.2292 26.9106 30.0278C26.9106 28.6887 25.8594 27.5999 24.5359 27.5311C24.5516 27.4278 24.5641 27.3215 24.5641 27.212C24.5641 26.0888 23.6536 25.1783 22.5304 25.1783C22.4115 25.1783 22.2926 25.1908 22.18 25.2096C22.3052 24.9124 22.374 24.5838 22.374 24.2397C22.374 22.8568 21.2539 21.7367 19.871 21.7367C18.4881 21.7367 17.368 22.8568 17.368 24.2397H10.0155C10.0155 22.8568 8.89543 21.7367 7.51254 21.7367C6.12964 21.7367 5.00955 22.8568 5.00955 24.2397C5.00955 24.5838 5.07839 24.9124 5.20353 25.2096C5.08777 25.1908 4.97201 25.1783 4.85312 25.1783C3.7299 25.1783 2.81945 26.0888 2.81945 27.212C2.81945 27.3215 2.83196 27.4278 2.8476 27.5311C1.52415 27.5999 0.4729 28.6887 0.4729 30.0278C0.4729 31.2261 1.31766 32.2304 2.444 32.4745C2.444 32.4933 2.444 32.512 2.444 32.5308H24.9427H24.9395Z" fill="#2D384A"/>
<path d="M24.9391 33.0001H2.43728C2.31213 33.0001 2.20262 32.9531 2.11815 32.8749C0.879172 32.5026 0 31.3418 0 30.0278C0 28.6073 0.998064 27.4121 2.34654 27.1243C2.39035 25.8759 3.35087 24.856 4.5742 24.7246C4.54917 24.565 4.53352 24.4054 4.53352 24.2396C4.53352 22.6002 5.86636 21.2673 7.50581 21.2673C8.9857 21.2673 10.2153 22.353 10.4406 23.7703H16.9295C17.1548 22.353 18.3844 21.2673 19.8643 21.2673C21.5037 21.2673 22.8366 22.6002 22.8366 24.2396C22.8366 24.4023 22.8241 24.565 22.799 24.7246C24.0224 24.8591 24.9829 25.8759 25.0267 27.1243C26.3752 27.4121 27.3732 28.6073 27.3732 30.0278C27.3732 31.3387 26.4941 32.5026 25.2551 32.8749C25.1706 32.9531 25.058 33.0001 24.9359 33.0001H24.9391ZM2.66567 32.0614H24.7076C24.7451 32.0395 24.7889 32.0239 24.8327 32.0145C25.7619 31.8143 26.4346 30.9789 26.4346 30.0278C26.4346 28.9452 25.5867 28.0567 24.5073 28.0004C24.3759 27.9941 24.2508 27.9315 24.1663 27.8283C24.0818 27.725 24.0474 27.5905 24.0662 27.4591C24.0818 27.3652 24.0881 27.287 24.0881 27.2119C24.0881 26.3484 23.3872 25.6476 22.5237 25.6476C22.4392 25.6476 22.3516 25.6569 22.2515 25.6726C22.0826 25.7007 21.9105 25.635 21.8041 25.5036C21.6977 25.3691 21.6727 25.1876 21.7384 25.0281C21.8448 24.7778 21.898 24.5118 21.898 24.2396C21.898 23.1195 20.9844 22.206 19.8643 22.206C18.7442 22.206 17.8306 23.1195 17.8306 24.2396C17.8306 24.4993 17.621 24.7089 17.3613 24.7089H10.0088C9.74911 24.7089 9.53949 24.4993 9.53949 24.2396C9.53949 23.1195 8.6259 22.206 7.50581 22.206C6.38573 22.206 5.47214 23.1195 5.47214 24.2396C5.47214 24.5118 5.52533 24.7778 5.63171 25.0281C5.69741 25.1876 5.67238 25.3691 5.566 25.5036C5.45963 25.6382 5.28755 25.7007 5.1186 25.6726C5.01848 25.6569 4.93087 25.6476 4.8464 25.6476C3.98287 25.6476 3.28203 26.3484 3.28203 27.2119C3.28203 27.2839 3.28829 27.3621 3.30394 27.4591C3.32584 27.5905 3.28829 27.725 3.20382 27.8283C3.11934 27.9315 2.99732 27.9941 2.86278 28.0004C1.78025 28.0567 0.93236 28.9452 0.93236 30.0278C0.93236 30.9789 1.60504 31.8143 2.53427 32.0145C2.57807 32.0239 2.62187 32.0395 2.65942 32.0614H2.66567Z" fill="#2D384A"/>
<path d="M17.4271 27.5245C17.4271 28.9074 15.8159 31.5918 13.8291 31.5918C11.8424 31.5918 10.2311 28.9074 10.2311 27.5245C10.2311 26.1416 11.8424 25.0215 13.8291 25.0215C15.8159 25.0215 17.4271 26.1416 17.4271 27.5245Z" fill="white"/>
<path d="M13.8296 32.0611C11.4799 32.0611 9.76221 29.0763 9.76221 27.5244C9.76221 25.885 11.5863 24.5521 13.8296 24.5521C16.0728 24.5521 17.8969 25.885 17.8969 27.5244C17.8969 29.0763 16.1792 32.0611 13.8296 32.0611ZM13.8296 25.4907C12.1338 25.4907 10.7008 26.4231 10.7008 27.5244C10.7008 28.7102 12.1494 31.1224 13.8296 31.1224C15.5097 31.1224 16.9583 28.7102 16.9583 27.5244C16.9583 26.4231 15.5253 25.4907 13.8296 25.4907Z" fill="#2D384A"/>
<path d="M21.4913 13.0852C21.97 12.8161 22.2954 12.3124 22.2954 11.7273C22.2954 11.3174 22.1358 10.9514 21.8793 10.6729C22.3079 10.4758 22.6083 10.0441 22.6083 9.5372C22.6083 9.2431 22.5019 8.97403 22.3298 8.76127C22.8617 8.51098 23.234 7.97596 23.234 7.34709C23.234 6.69006 22.8273 6.12689 22.2516 5.89849L22.383 4.64387C22.5958 2.59143 21.0909 0.736092 19.0353 0.52021L18.7255 0.488922C16.6731 0.276169 14.8178 1.78109 14.6019 3.83666L13.8791 10.7949C13.8166 10.7949 13.754 10.7887 13.6914 10.7887C13.6288 10.7887 13.5663 10.7918 13.5037 10.7949L12.781 3.83666C12.5682 1.78421 10.7129 0.276169 8.6573 0.488922L8.34755 0.52021C6.29511 0.732963 4.78706 2.5883 4.99982 4.64387L5.13122 5.89849C4.55554 6.13002 4.1488 6.69006 4.1488 7.34709C4.1488 8.00412 4.52112 8.51098 5.05301 8.76127C4.88093 8.97403 4.77455 9.2431 4.77455 9.5372C4.77455 10.0409 5.07491 10.4727 5.50354 10.6729C5.24699 10.9514 5.08742 11.3206 5.08742 11.7273C5.08742 12.3124 5.41281 12.8192 5.8915 13.0852C6.03543 13.9487 5.92592 14.831 5.49728 15.5944C4.68069 17.0493 4.24267 18.745 4.3115 20.5472C4.49609 25.3091 8.32565 28.3033 13.0813 28.6037C18.5409 28.9478 23.0745 25.5594 23.0745 20.1749C23.0745 18.5104 22.6396 16.9491 21.8793 15.5944C21.4507 14.831 21.3443 13.9487 21.4882 13.0883L21.4913 13.0852Z" fill="white"/>
<path d="M13.8264 29.095C13.5698 29.095 13.3133 29.0856 13.0536 29.07C7.7285 28.7352 4.02722 25.3155 3.84263 20.5661C3.77066 18.742 4.20243 16.9462 5.08786 15.3661C5.41637 14.7811 5.54152 14.0928 5.45705 13.3638C4.93455 12.9821 4.61855 12.3751 4.61855 11.7274C4.61855 11.3989 4.6999 11.0767 4.85008 10.7888C4.50904 10.4697 4.30568 10.016 4.30568 9.53733C4.30568 9.32145 4.34635 9.11183 4.42457 8.91472C3.96152 8.53301 3.67993 7.96045 3.67993 7.34722C3.67993 6.637 4.04286 5.99561 4.63106 5.62642L4.53407 4.69094C4.41831 3.57398 4.74683 2.47267 5.46018 1.59663C6.17353 0.717454 7.18098 0.169926 8.30106 0.0541636L8.6108 0.0228763C10.9261 -0.218036 13.0067 1.47148 13.2476 3.78673L13.6919 8.05744L14.1361 3.78673C14.377 1.47148 16.4576 -0.218036 18.7729 0.0228763L19.0858 0.0541636C21.401 0.295076 23.0905 2.37568 22.8496 4.69094L22.7526 5.62642C23.3408 5.99249 23.7038 6.637 23.7038 7.34722C23.7038 7.95733 23.4222 8.53301 22.9591 8.91472C23.0374 9.11183 23.078 9.32145 23.078 9.53733C23.078 10.0192 22.8747 10.4697 22.5336 10.7888C22.6869 11.0767 22.7652 11.3989 22.7652 11.7274C22.7652 12.3782 22.4492 12.9852 21.9267 13.3638C21.8422 14.0928 21.9673 14.7811 22.2927 15.363C23.1124 16.8241 23.5473 18.4886 23.5473 20.175C23.5473 22.678 22.6275 24.8618 20.8911 26.495C19.1108 28.1689 16.5672 29.0981 13.8264 29.0981V29.095ZM9.04883 0.936464C8.93619 0.936464 8.82043 0.942722 8.70779 0.955237L8.39805 0.986524C7.52826 1.07726 6.74608 1.50276 6.18917 2.18483C5.63539 2.86689 5.37883 3.72416 5.46956 4.59082L5.60097 5.84544C5.62287 6.05506 5.50398 6.25217 5.31 6.33039C4.89075 6.49934 4.62168 6.89669 4.62168 7.3441C4.62168 7.76334 4.86885 8.15131 5.25368 8.33277C5.38509 8.39222 5.47895 8.51111 5.51024 8.6519C5.54152 8.7927 5.51024 8.93975 5.4195 9.05238C5.34128 9.1525 5.24429 9.31832 5.24429 9.53733C5.24429 9.84082 5.42263 10.1161 5.70109 10.2444C5.83875 10.307 5.93574 10.4321 5.9639 10.5792C5.99206 10.7262 5.95139 10.8796 5.84814 10.9891C5.66042 11.1956 5.55404 11.4552 5.55404 11.7274C5.55404 12.1185 5.76992 12.4815 6.11721 12.6786C6.24236 12.7474 6.32683 12.8694 6.35186 13.0102C6.52082 14.0271 6.36751 15.0001 5.90446 15.8261C5.1035 17.2528 4.71554 18.8797 4.77811 20.5317C4.94394 24.7774 8.29167 27.8341 13.1099 28.1376C15.8851 28.3128 18.4851 27.4649 20.2434 25.813C21.789 24.3612 22.6056 22.4152 22.6056 20.1781C22.6056 18.6544 22.2145 17.1495 21.4699 15.8261C21.0068 15.0032 20.8535 14.0302 21.0256 13.0133C21.0506 12.8726 21.1351 12.7505 21.2602 12.6817C21.6075 12.4877 21.8234 12.1217 21.8234 11.7306C21.8234 11.4584 21.7202 11.1987 21.5293 10.9922C21.4292 10.8827 21.3854 10.7294 21.4135 10.5823C21.4417 10.4353 21.5418 10.3101 21.6764 10.2476C21.9548 10.1193 22.1332 9.84082 22.1332 9.54046C22.1332 9.32145 22.0393 9.15563 21.9579 9.05551C21.8672 8.94287 21.8359 8.79582 21.8672 8.65503C21.8985 8.51424 21.9955 8.39848 22.1238 8.3359C22.5086 8.15444 22.7558 7.76647 22.7558 7.34722C22.7558 6.89982 22.4867 6.49934 22.0675 6.33352C21.8735 6.2553 21.7546 6.05819 21.7765 5.84856L21.9079 4.59395C22.0956 2.7918 20.7815 1.17425 18.9794 0.986524L18.6665 0.955237C16.8644 0.770642 15.2468 2.08158 15.0591 3.88372L14.3364 10.842C14.3113 11.0829 14.0955 11.2738 13.8608 11.2613H13.7795C13.7138 11.2581 13.6481 11.2581 13.5823 11.2613H13.501C13.257 11.2738 13.0505 11.0861 13.0254 10.842L12.3027 3.88372C12.1275 2.19734 10.6977 0.936464 9.03631 0.936464H9.04883Z" fill="#2D384A"/>
<path d="M9.35118 22.2063C11.2225 22.2063 12.7396 20.6892 12.7396 18.8179C12.7396 16.9465 11.2225 15.4294 9.35118 15.4294C7.47981 15.4294 5.96277 16.9465 5.96277 18.8179C5.96277 20.6892 7.47981 22.2063 9.35118 22.2063Z" fill="white"/>
<path d="M9.35162 22.6755C7.22408 22.6755 5.4939 20.9453 5.4939 18.8178C5.4939 16.6903 7.22408 14.9601 9.35162 14.9601C11.4791 14.9601 13.2093 16.6903 13.2093 18.8178C13.2093 20.9453 11.4791 22.6755 9.35162 22.6755ZM9.35162 15.8987C7.74032 15.8987 6.43251 17.2096 6.43251 18.8178C6.43251 20.426 7.74345 21.7369 9.35162 21.7369C10.9598 21.7369 12.2707 20.426 12.2707 18.8178C12.2707 17.2096 10.9598 15.8987 9.35162 15.8987Z" fill="#2D384A"/>
<path d="M18.0377 22.2063C19.9091 22.2063 21.4261 20.6892 21.4261 18.8179C21.4261 16.9465 19.9091 15.4294 18.0377 15.4294C16.1663 15.4294 14.6493 16.9465 14.6493 18.8179C14.6493 20.6892 16.1663 22.2063 18.0377 22.2063Z" fill="white"/>
<path d="M18.0381 22.6755C15.9106 22.6755 14.1804 20.9453 14.1804 18.8178C14.1804 16.6903 15.9106 14.9601 18.0381 14.9601C20.1657 14.9601 21.8959 16.6903 21.8959 18.8178C21.8959 20.9453 20.1657 22.6755 18.0381 22.6755ZM18.0381 15.8987C16.4268 15.8987 15.119 17.2096 15.119 18.8178C15.119 20.426 16.43 21.7369 18.0381 21.7369C19.6463 21.7369 20.9572 20.426 20.9572 18.8178C20.9572 17.2096 19.6463 15.8987 18.0381 15.8987Z" fill="#2D384A"/>
<path d="M14.7513 18.4391H12.6331C12.3734 18.4391 12.1638 18.2295 12.1638 17.9698C12.1638 17.7101 12.3734 17.5005 12.6331 17.5005H14.7513C15.011 17.5005 15.2206 17.7101 15.2206 17.9698C15.2206 18.2295 15.011 18.4391 14.7513 18.4391Z" fill="#2D384A"/>
<path d="M11.0352 19.2329C11.0352 18.8009 10.685 18.4507 10.253 18.4507C9.82102 18.4507 9.47083 18.8009 9.47083 19.2329V19.5457C9.47083 19.9777 9.82102 20.3279 10.253 20.3279C10.685 20.3279 11.0352 19.9777 11.0352 19.5457V19.2329Z" fill="#2D384A"/>
<path d="M17.918 19.2329C17.918 18.8009 17.5678 18.4507 17.1358 18.4507C16.7038 18.4507 16.3536 18.8009 16.3536 19.2329V19.5457C16.3536 19.9777 16.7038 20.3279 17.1358 20.3279C17.5678 20.3279 17.918 19.9777 17.918 19.5457V19.2329Z" fill="#2D384A"/>
<path d="M15.4095 23.3034L14.2738 24.4391C13.9515 24.7614 13.429 24.7614 13.1036 24.4391L11.9679 23.3034C11.4486 22.784 11.8146 21.8923 12.553 21.8923H14.8244C15.5597 21.8923 15.9289 22.784 15.4095 23.3034Z" fill="#2D384A"/>
<path d="M20.2218 13.2229C20.0622 13.0571 19.8432 12.9757 19.6211 12.9945C19.4553 13.0101 19.302 13.079 19.1831 13.1947C18.9797 13.0101 18.8796 12.741 18.9077 12.4657C19.2237 12.4782 19.5178 12.2874 19.6273 11.9714C19.7181 11.718 19.6555 11.427 19.4709 11.233C19.3113 11.0672 19.0955 10.9827 18.8671 11.0015C18.6418 11.0203 18.4416 11.1423 18.3195 11.33C18.1756 11.549 18.1631 11.8212 18.2726 12.0496C18.0348 12.1873 17.7438 12.1998 17.4935 12.0871C17.5499 11.9338 17.553 11.7649 17.5029 11.6053C17.4341 11.3926 17.2683 11.2236 17.0555 11.1423C16.7958 11.0453 16.5017 11.1079 16.3015 11.2987C16.1357 11.4583 16.0543 11.6773 16.0731 11.9026C16.095 12.1278 16.2139 12.3249 16.4016 12.4501C16.5487 12.5471 16.727 12.5846 16.9022 12.5627C16.9585 12.8349 16.8803 13.1134 16.6989 13.3167C16.5674 13.2104 16.4079 13.1634 16.217 13.1759C15.9667 13.1916 15.754 13.3042 15.632 13.4919C15.5099 13.6797 15.4786 13.9081 15.5475 14.1208C15.6163 14.3336 15.779 14.5025 15.9918 14.5839C16.2452 14.6809 16.5362 14.6245 16.7364 14.4399C16.8615 14.3273 16.9398 14.1834 16.9679 14.027C17.2401 14.0582 17.481 14.2147 17.6187 14.4556C17.4842 14.5432 17.3872 14.6746 17.3309 14.831C17.2432 15.0876 17.309 15.3786 17.4967 15.5725C17.6406 15.7196 17.8283 15.7978 18.0254 15.7978C18.0473 15.7978 18.0724 15.7978 18.0943 15.7947C18.3164 15.7728 18.5135 15.6539 18.6387 15.4662C18.7607 15.2816 18.7826 15.0407 18.695 14.806C18.6293 14.6245 18.5229 14.4994 18.3727 14.418C18.4854 14.1646 18.7137 13.9832 18.9828 13.93C19.0298 14.0989 19.1361 14.246 19.2832 14.343C19.4709 14.465 19.7024 14.4963 19.9152 14.4274C20.1279 14.3586 20.2969 14.1928 20.3782 13.98C20.4752 13.7203 20.4126 13.4262 20.2218 13.226V13.2229Z" fill="#2D384A"/>
</svg>
