<svg width="20" height="20" viewBox="0 0 20 20" fill="none" xmlns="http://www.w3.org/2000/svg">
<path d="M10.0106 0C5.58876 0 2 3.36168 2 7.50375C2 7.54377 2 7.58379 2.01068 7.62381C2 7.76388 2.01068 7.91396 2.03204 8.05403C2.14953 9.69485 2.84379 11.1956 3.92255 12.3762C5.18289 13.7569 6.41119 15.1676 7.37247 16.7384L9.07072 19.4997C9.28434 19.8299 9.6368 20 9.99995 20C10.3631 20 10.7156 19.8299 10.9292 19.4997L12.6274 16.7384C13.5994 15.1676 14.817 13.7569 16.0774 12.3762C17.1561 11.1956 17.8504 9.69485 17.9679 8.05403C17.9892 7.91396 17.9999 7.76388 17.9892 7.62381C17.9999 7.58379 17.9999 7.54377 17.9999 7.50375C18.0213 3.36168 14.4325 0 10.0106 0ZM15.8744 7.77389C15.8744 7.77389 15.8637 7.87394 15.8531 7.92396C15.7676 9.09455 15.287 10.1851 14.4645 11.0855C13.1828 12.4862 11.8477 14.027 10.7797 15.7579L9.99995 17.0285L9.22025 15.7579C8.15217 14.027 6.81706 12.4962 5.53536 11.0855C4.71293 10.1851 4.2323 9.09455 4.14685 7.92396C4.14685 7.87394 4.13617 7.82391 4.12549 7.77389C4.12549 7.66383 4.12549 7.54377 4.12549 7.43372C4.16821 4.43222 6.78502 2.01101 9.99995 2.01101C13.2149 2.01101 15.821 4.42221 15.8744 7.42371C15.8637 7.54377 15.8531 7.66383 15.8744 7.78389V7.77389Z" fill="#7A848E"/>
<path d="M10 11C11.6569 11 13 9.65685 13 8C13 6.34315 11.6569 5 10 5C8.34315 5 7 6.34315 7 8C7 9.65685 8.34315 11 10 11Z" fill="#7A848E"/>
</svg>
