<svg width="20" height="20" viewBox="0 0 20 20" fill="none" xmlns="http://www.w3.org/2000/svg">
<rect width="20" height="20" rx="10" fill="#EFEFF1"/>
<path d="M13.5 5H9.5C8.675 5 8 5.675 8 6.5V7H6.5C5.675 7 5 7.675 5 8.5V13.5C5 14.325 5.675 15 6.5 15H10.5C11.325 15 12 14.325 12 13.5V13H13.5C14.325 13 15 12.325 15 11.5V6.5C15 5.675 14.325 5 13.5 5ZM11 13.5C11 13.775 10.775 14 10.5 14H6.5C6.225 14 6 13.775 6 13.5V8.5C6 8.225 6.225 8 6.5 8H8V11.5C8 12.325 8.675 13 9.5 13H11V13.5ZM14 11.5C14 11.775 13.775 12 13.5 12H9.5C9.225 12 9 11.775 9 11.5V6.5C9 6.225 9.225 6 9.5 6H13.5C13.775 6 14 6.225 14 6.5V11.5Z" fill="#2D384A"/>
</svg>
