<svg width="40" height="40" viewBox="0 0 40 40" fill="none" xmlns="http://www.w3.org/2000/svg">
<rect x="0.5" y="0.5" width="39" height="39" rx="19.5" fill="white" fill-opacity="0.5" stroke="#E0E1E4"/>
<path d="M10.9998 16C11.5498 16 11.9998 15.55 11.9998 15V13.66L15.2898 16.95C15.4898 17.15 15.7398 17.24 15.9998 17.24C16.2598 17.24 16.5098 17.14 16.7098 16.95C17.0998 16.56 17.0998 15.93 16.7098 15.54L13.1698 12H15.0098C15.5598 12 16.0098 11.55 16.0098 11C16.0098 10.45 15.5598 10 15.0098 10H13.0098C12.1198 10 11.3398 10.39 10.7898 11C10.7898 11 10.7898 11 10.7798 11C10.7698 11.01 10.7698 11.03 10.7498 11.04C10.2998 11.57 10.0098 12.24 10.0098 12.99V14.99C10.0098 15.54 10.4598 15.99 11.0098 15.99L10.9998 16Z" fill="white"/>
<path d="M29.2603 11.0498C29.2603 11.0498 29.2503 11.0198 29.2303 11.0098C29.2303 11.0098 29.2303 11.0098 29.2203 11.0098C28.6703 10.3998 27.8803 10.0098 27.0003 10.0098H25.0003C24.4503 10.0098 24.0003 10.4598 24.0003 11.0098C24.0003 11.5598 24.4503 12.0098 25.0003 12.0098H26.8403L23.3003 15.5498C22.9103 15.9398 22.9103 16.5698 23.3003 16.9598C23.5003 17.1598 23.7503 17.2498 24.0103 17.2498C24.2703 17.2498 24.5203 17.1498 24.7203 16.9598L28.0103 13.6698V15.0098C28.0103 15.5598 28.4603 16.0098 29.0103 16.0098C29.5603 16.0098 30.0103 15.5598 30.0103 15.0098V13.0098C30.0103 12.2598 29.7303 11.5898 29.2703 11.0598L29.2603 11.0498Z" fill="white"/>
<path d="M28.9995 23.9999C28.4495 23.9999 27.9995 24.4499 27.9995 24.9999V26.8399L24.5795 23.4199C24.1895 23.0299 23.5595 23.0299 23.1695 23.4199C22.7795 23.8099 22.7795 24.4399 23.1695 24.8299L26.3395 27.9999H24.9995C24.4495 27.9999 23.9995 28.4499 23.9995 28.9999C23.9995 29.5499 24.4495 29.9999 24.9995 29.9999H26.9995C27.7495 29.9999 28.4195 29.7199 28.9495 29.2599C28.9595 29.2499 28.9795 29.2499 28.9895 29.2299C28.9895 29.2299 28.9895 29.2299 28.9895 29.2199C29.5995 28.6699 29.9895 27.8799 29.9895 26.9999V24.9999C29.9895 24.4499 29.5395 23.9999 28.9895 23.9999H28.9995Z" fill="white"/>
<path d="M15.42 23.4102L12 26.8302V24.9902C12 24.4402 11.55 23.9902 11 23.9902C10.45 23.9902 10 24.4402 10 24.9902V26.9902C10 27.8802 10.39 28.6602 11 29.2102C11 29.2102 11 29.2102 11 29.2202C11.01 29.2302 11.03 29.2302 11.04 29.2502C11.57 29.7002 12.24 29.9902 12.99 29.9902H14.99C15.54 29.9902 15.99 29.5402 15.99 28.9902C15.99 28.4402 15.54 27.9902 14.99 27.9902H13.65L16.82 24.8202C17.21 24.4302 17.21 23.8002 16.82 23.4102C16.43 23.0202 15.8 23.0202 15.41 23.4102H15.42Z" fill="white"/>
</svg>
