<svg width="20" height="20" viewBox="0 0 20 20" fill="none" xmlns="http://www.w3.org/2000/svg">
<g clip-path="url(#clip0_173_2190)">
<path d="M16 0H4C2.35 0 1 1.35 1 3V17C1 18.65 2.35 20 4 20H16C17.65 20 19 18.65 19 17V3C19 1.35 17.65 0 16 0ZM17 17C17 17.55 16.55 18 16 18H4C3.45 18 3 17.55 3 17V3C3 2.45 3.45 2 4 2H16C16.55 2 17 2.45 17 3V17Z" fill="#7A848E"/>
<path d="M14 5H6C5.45 5 5 5.45 5 6C5 6.55 5.45 7 6 7H14C14.55 7 15 6.55 15 6C15 5.45 14.55 5 14 5Z" fill="#7A848E"/>
<path d="M14 9H6C5.45 9 5 9.45 5 10C5 10.55 5.45 11 6 11H14C14.55 11 15 10.55 15 10C15 9.45 14.55 9 14 9Z" fill="#7A848E"/>
<path d="M10 13H6C5.45 13 5 13.45 5 14C5 14.55 5.45 15 6 15H10C10.55 15 11 14.55 11 14C11 13.45 10.55 13 10 13Z" fill="#7A848E"/>
</g>
<defs>
<clipPath id="clip0_173_2190">
<rect width="18" height="20" fill="white" transform="translate(1)"/>
</clipPath>
</defs>
</svg>
