<svg width="20" height="20" viewBox="0 0 20 20" fill="none" xmlns="http://www.w3.org/2000/svg">
<path d="M18.6407 1.55444C17.8411 1.27435 16.9815 1.52443 16.4418 2.19463L13.8031 5.47562L7.3963 0.424098C6.98651 0.114005 6.50675 -0.0260373 6.03698 0.00397179C6.02699 0.00397179 6.007 0.00397179 5.997 0.00397179C5.85707 0.00397179 5.71714 0.0339808 5.5972 0.0939989C5.22739 0.204032 4.89755 0.434101 4.62769 0.754198L0.449775 5.95577C0.15992 6.31587 0 6.77601 0 7.25616V16.519C0 17.4092 0.529735 18.1594 1.34933 18.4495C2.14893 18.7296 3.0085 18.4795 3.54823 17.8093L6.16692 14.5083L12.6037 19.5699C12.9735 19.86 13.4033 20 13.8231 20C13.8631 20 13.903 19.99 13.953 19.99C13.973 19.99 13.983 20 14.003 20C14.063 20 14.1229 19.97 14.1829 19.96C14.2229 19.96 14.2629 19.95 14.2929 19.94C14.3428 19.93 14.3828 19.91 14.4328 19.89C14.7826 19.7699 15.1124 19.5699 15.3723 19.2498L19.5502 14.0382C19.8401 13.6781 20 13.218 20 12.7378V3.48502C20 2.59475 19.4703 1.84453 18.6507 1.55444H18.6407ZM4.9975 12.9179C4.86757 13.0179 4.73763 13.1279 4.62769 13.268L1.999 16.519V7.21615L4.9975 3.46502V12.9179ZM12.9935 17.3492L7.3963 12.9479C7.27636 12.8478 7.13643 12.7878 6.9965 12.7278V2.65477L12.5937 7.0661C12.7236 7.16613 12.8536 7.24616 12.9935 7.30617V17.3492ZM17.981 12.7978L14.9925 16.549V7.08611C15.1224 6.98608 15.2524 6.87604 15.3623 6.736L17.991 3.48502V12.7978H17.981Z" fill="#7A848E"/>
</svg>
