<svg width="40" height="40" viewBox="0 0 40 40" fill="none" xmlns="http://www.w3.org/2000/svg">
<rect x="0.5" y="0.5" width="39" height="39" rx="19.5" fill="white" fill-opacity="0.5" stroke="#E0E1E4"/>
<path d="M25.992 21.996C24.7826 21.996 23.7131 22.5463 22.9735 23.3967C22.9335 23.3667 22.9035 23.3367 22.8636 23.3167L18.006 20.8954C18.006 20.8954 17.926 20.8754 17.8961 20.8654C17.956 20.5853 17.996 20.2951 17.996 20.005C17.996 19.7149 17.956 19.4147 17.8961 19.1346C17.936 19.1246 17.976 19.1346 18.016 19.1046L22.8736 16.6833C22.8736 16.6833 22.9435 16.6233 22.9835 16.6033C23.7131 17.4537 24.7926 18.004 26.002 18.004C28.2109 18.004 30 16.2131 30 14.002C30 11.7909 28.2109 10 26.002 10C23.7931 10 22.004 11.7909 22.004 14.002C22.004 14.3022 22.044 14.5923 22.1039 14.8624C22.064 14.8724 22.024 14.8724 21.994 14.8924L17.1364 17.3137C17.1364 17.3137 17.0665 17.3737 17.0265 17.3937C16.2969 16.5433 15.2174 15.993 14.008 15.993C11.7891 15.993 10 17.7839 10 19.995C10 22.2061 11.7891 23.997 13.998 23.997C15.2074 23.997 16.2769 23.4467 17.0165 22.5963C17.0565 22.6263 17.0865 22.6563 17.1264 22.6763L21.984 25.0975C21.984 25.0975 22.064 25.1076 22.1039 25.1276C22.044 25.4077 22.004 25.6978 22.004 25.998C22.004 28.2091 23.7931 30 26.002 30C28.2109 30 30 28.2091 30 25.998C30 23.7869 28.2109 21.996 26.002 21.996H25.992Z" fill="white"/>
</svg>
