<svg width="20" height="20" viewBox="0 0 20 20" fill="none" xmlns="http://www.w3.org/2000/svg">
<path d="M10 0C4.48 0 0 4.48 0 10C0 15.52 4.48 20 10 20C15.52 20 20 15.52 20 10C20 4.48 15.52 0 10 0ZM17.11 6.34H14.37C13.83 4.81 12.96 3.4 11.78 2.22C11.78 2.22 11.76 2.2 11.75 2.19C14.09 2.71 16.03 4.26 17.11 6.33V6.34ZM18 10C18 10.57 17.94 11.12 17.82 11.66H14.86C14.94 11.11 15 10.56 15 10C15 9.44 14.95 8.89 14.86 8.34H17.82C17.93 8.88 18 9.43 18 10ZM10.36 16.36C10.25 16.47 10.11 16.57 9.99 16.68C9.96 16.65 9.92 16.62 9.89 16.59C9.79 16.49 9.69 16.39 9.59 16.29C9.45 16.15 9.32 16.01 9.19 15.87C9.1 15.76 9.01 15.65 8.92 15.54C8.8 15.39 8.69 15.24 8.58 15.09C8.5 14.97 8.42 14.85 8.34 14.73C8.24 14.57 8.15 14.41 8.06 14.24C7.99 14.12 7.93 13.99 7.87 13.86C7.84 13.79 7.81 13.72 7.78 13.66H12.21C11.77 14.65 11.15 15.57 10.36 16.36ZM2 10C2 9.43 2.06 8.88 2.18 8.34H5.14C5.06 8.89 5 9.44 5 10C5 10.56 5.06 11.12 5.14 11.66H2.18C2.07 11.12 2 10.57 2 10ZM10 3.33C10.12 3.44 10.25 3.53 10.36 3.64C11.15 4.43 11.77 5.35 12.21 6.34H7.78C8.22 5.35 8.84 4.43 9.63 3.64C9.74 3.53 9.87 3.43 9.99 3.33H10ZM7.17 11.66C7.15 11.55 7.13 11.45 7.11 11.34C7.09 11.23 7.07 11.12 7.06 11.01C7.02 10.68 7 10.34 7 10C7 9.44 7.06 8.88 7.16 8.34H12.85C12.95 8.88 13.01 9.44 13.01 10C13.01 10.56 12.95 11.12 12.85 11.66H7.17ZM8.25 2.2C8.25 2.2 8.23 2.22 8.22 2.22C7.04 3.4 6.17 4.81 5.63 6.34H2.89C3.96 4.27 5.91 2.72 8.25 2.2ZM2.89 13.66H5.62C5.91 14.49 6.29 15.28 6.78 16.01C7.2 16.66 7.71 17.25 8.27 17.81C5.93 17.29 3.97 15.74 2.9 13.66H2.89ZM11.75 17.8C11.75 17.8 11.77 17.78 11.78 17.78C12.96 16.6 13.83 15.19 14.37 13.66H17.11C16.04 15.73 14.09 17.28 11.75 17.8Z" fill="#7A848E"/>
</svg>
