<svg width="20" height="20" viewBox="0 0 20 20" fill="none" xmlns="http://www.w3.org/2000/svg">
<path d="M10 0C4.48 0 0 4.48 0 10C0 15.52 4.48 20 10 20C15.52 20 20 15.52 20 10C20 4.48 15.52 0 10 0ZM10 18C5.59 18 2 14.41 2 10C2 5.59 5.59 2 10 2C14.41 2 18 5.59 18 10C18 14.41 14.41 18 10 18Z" fill="#7A848E"/>
<path d="M11 9.59V6C11 5.45 10.55 5 10 5C9.45 5 9 5.45 9 6V10C9 10.27 9.11 10.52 9.29 10.71L12.29 13.71C12.49 13.91 12.74 14 13 14C13.26 14 13.51 13.9 13.71 13.71C14.1 13.32 14.1 12.69 13.71 12.3L11 9.59Z" fill="#7A848E"/>
</svg>
