<svg width="40" height="40" viewBox="0 0 40 40" fill="none" xmlns="http://www.w3.org/2000/svg">
<rect x="0.5" y="0.5" width="39" height="39" rx="19.5" fill="white" fill-opacity="0.5" stroke="#E0E1E4"/>
<path d="M19.0003 21.9743C19.0003 23.7143 17.4903 25.1143 15.7103 24.9143C14.3703 24.7643 13.2903 23.7043 13.1203 22.3743C13.1203 22.3243 13.1103 22.2743 13.1003 22.2243C13.0703 21.8743 13.3003 21.5543 13.6403 21.4843L18.5803 20.4443C18.6003 20.4943 18.6303 20.5443 18.6503 20.5943C18.8703 21.0143 19.0003 21.4843 19.0003 21.9843V21.9743Z" fill="white"/>
<path d="M17.73 18.5442L12.77 19.5842C12.49 19.6442 12.21 19.5242 12.06 19.2842C11.82 18.9142 11.54 18.5642 11.23 18.2442C10.47 17.4442 10 16.3542 10 15.1542C10 11.5342 11.86 9.82425 14.5 10.0142C16.68 10.1742 18.78 12.5642 18.98 14.7342C19.06 15.6042 18.89 16.4342 18.54 17.1442C18.4 17.4142 18.31 17.7042 18.25 17.9942C18.2 18.2642 18 18.4742 17.73 18.5342V18.5442Z" fill="white"/>
<path d="M21 27.0442C21 28.7842 22.51 30.1842 24.29 29.9842C25.63 29.8342 26.71 28.7742 26.88 27.4442C26.88 27.3942 26.89 27.3442 26.9 27.2942C26.93 26.9442 26.7 26.6242 26.36 26.5542L21.42 25.5142C21.4 25.5642 21.37 25.6142 21.35 25.6642C21.13 26.0842 21 26.5542 21 27.0542V27.0442Z" fill="white"/>
<path d="M22.2695 23.6146L27.2295 24.6546C27.5095 24.7146 27.7895 24.5946 27.9395 24.3546C28.1795 23.9846 28.4595 23.6346 28.7695 23.3146C29.5295 22.5146 29.9995 21.4246 29.9995 20.2246C29.9995 16.6046 28.1395 14.8946 25.4995 15.0846C23.3195 15.2446 21.2195 17.6346 21.0195 19.8046C20.9395 20.6746 21.1095 21.5046 21.4595 22.2146C21.5995 22.4846 21.6895 22.7746 21.7495 23.0646C21.7995 23.3346 21.9995 23.5446 22.2695 23.6046V23.6146Z" fill="white"/>
</svg>
