<svg width="24" height="24" viewBox="0 0 24 24" fill="none" xmlns="http://www.w3.org/2000/svg">
<path d="M12 4C16.41 4 20 7.59 20 12C20 16.41 16.41 20 12 20C7.59 20 4 16.41 4 12C4 7.59 7.59 4 12 4ZM12 2C6.48 2 2 6.48 2 12C2 17.52 6.48 22 12 22C17.52 22 22 17.52 22 12C22 6.48 17.52 2 12 2Z" fill="#7A848E"/>
<path d="M12 14.39C11.45 14.39 11 13.94 11 13.39V11.61C11 11.06 11.45 10.61 12 10.61C12.55 10.61 13 10.16 13 9.61C13 9.06 12.55 8.61 12 8.61C11.45 8.61 11 9.06 11 9.61C11 10.16 10.55 10.61 10 10.61C9.45 10.61 9 10.16 9 9.61C9 7.96 10.35 6.61 12 6.61C13.65 6.61 15 7.96 15 9.61C15 10.91 14.16 12.03 13 12.44V13.39C13 13.94 12.55 14.39 12 14.39Z" fill="#7A848E"/>
<path d="M12 17.39C11.87 17.39 11.74 17.36 11.62 17.31C11.5 17.26 11.39 17.19 11.29 17.1C11.2 17 11.13 16.89 11.08 16.77C11.03 16.65 11 16.52 11 16.39C11 16.12 11.11 15.87 11.29 15.68C11.39 15.59 11.5 15.52 11.62 15.47C11.8 15.39 12 15.37 12.2 15.41C12.26 15.42 12.32 15.44 12.38 15.47C12.44 15.49 12.5 15.52 12.56 15.56C12.61 15.59 12.66 15.64 12.71 15.68C12.75 15.73 12.79 15.78 12.83 15.83C12.87 15.89 12.9 15.95 12.92 16.01C12.95 16.07 12.97 16.13 12.98 16.19C12.98 16.26 13 16.32 13 16.39C13 16.52 12.98 16.65 12.92 16.77C12.87 16.89 12.8 17 12.71 17.1C12.66 17.14 12.61 17.18 12.56 17.22C12.5 17.26 12.44 17.29 12.38 17.31C12.32 17.34 12.26 17.36 12.2 17.37C12.13 17.38 12.07 17.39 12 17.39Z" fill="#7A848E"/>
</svg>
