<svg width="24" height="24" viewBox="0 0 24 24" fill="none" xmlns="http://www.w3.org/2000/svg">
<path d="M21 20H3C2.45 20 2 20.45 2 21C2 21.55 2.45 22 3 22H21C21.55 22 22 21.55 22 21C22 20.45 21.55 20 21 20Z" fill="#7A848E"/>
<path d="M7.69141 17.31H10.5214C10.7914 17.31 11.0414 17.2 11.2314 17.02L20.4214 7.83L21.1314 7.12C21.4214 6.83 21.6414 6.49 21.7914 6.13C22.2314 5.05 22.0114 3.76 21.1314 2.88C19.9614 1.71 18.0614 1.71 16.8914 2.88L6.98141 12.78C6.79141 12.97 6.69141 13.22 6.69141 13.49V16.32C6.69141 16.87 7.14141 17.32 7.69141 17.32V17.31ZM19.3514 4.07C19.3514 4.07 19.4114 4.1 19.4414 4.12C19.5314 4.17 19.6314 4.22 19.7014 4.3C20.0914 4.69 20.0914 5.32 19.7014 5.71L19.0414 6.37L18.9914 6.42L17.5814 5.01L18.2914 4.3C18.5814 4.01 18.9914 3.94 19.3514 4.08V4.07ZM8.69141 13.9L16.1814 6.42L17.5914 7.83L10.1114 15.32H8.70141V13.91L8.69141 13.9Z" fill="#7A848E"/>
</svg>
