<svg width="24" height="24" viewBox="0 0 24 24" fill="none" xmlns="http://www.w3.org/2000/svg">
<path d="M21.9183 12.38C22.0183 12.14 22.0183 11.86 21.9183 11.62C21.8683 11.5 21.7983 11.39 21.6983 11.29L16.6983 6.29C16.3083 5.9 15.6783 5.9 15.2883 6.29C14.8983 6.68 14.8983 7.31 15.2883 7.7L18.5783 10.99H10.9883C10.4383 10.99 9.98828 11.44 9.98828 11.99C9.98828 12.54 10.4383 12.99 10.9883 12.99H18.5783L15.2883 16.28C14.8983 16.67 14.8983 17.3 15.2883 17.69C15.4883 17.89 15.7383 17.98 15.9983 17.98C16.2583 17.98 16.5083 17.88 16.7083 17.69L21.7083 12.69C21.7983 12.6 21.8783 12.49 21.9283 12.36L21.9183 12.38Z" fill="#7A848E"/>
<path d="M16 20H5C4.45 20 4 19.55 4 19V5C4 4.45 4.45 4 5 4H16C16.55 4 17 3.55 17 3C17 2.45 16.55 2 16 2H5C3.35 2 2 3.35 2 5V19C2 20.65 3.35 22 5 22H16C16.55 22 17 21.55 17 21C17 20.45 16.55 20 16 20Z" fill="#7A848E"/>
</svg>
